<svg width="335" height="349" viewBox="0 0 335 349" fill="none" xmlns="http://www.w3.org/2000/svg">
<path d="M333.108 349.518C330.824 347.162 328.354 344.992 325.723 343.031C323.916 341.586 322.024 340.25 320.057 339.031C317.835 337.46 315.766 335.683 313.878 333.724C309.826 329.939 306.369 325.565 303.621 320.75C300.878 315.622 298.493 310.058 295.57 304.879C293.493 300.395 290.82 296.212 287.622 292.443C284.033 288.854 280.11 285.674 276.597 282.008C272.92 278.258 269.888 273.926 267.623 269.188C266.392 266.624 265.059 264.06 263.495 261.496C262.208 258.916 261.194 256.209 260.469 253.419C259.598 250.855 258.239 248.496 257.316 245.958C256.569 243.502 255.978 241.001 255.547 238.471C253.966 233.771 251.683 229.336 248.777 225.318C246.124 220.254 243.96 214.948 242.316 209.472C241.164 206.851 240.146 204.172 239.265 201.447C238.782 198.611 238.878 195.707 239.547 192.909C240.405 188.24 240.56 183.47 240.009 178.756C239.675 176.192 239.342 173.628 238.957 171.064C238.804 169.884 238.496 168.782 238.265 167.628C237.971 166.022 237.867 164.387 237.958 162.756C237.958 157.013 237.957 151.295 237.701 145.552C237.409 142.663 237.582 139.745 238.214 136.911C238.584 135.891 238.842 134.834 238.983 133.757C238.983 132.347 238.804 130.963 238.983 129.552C239.291 123.604 242.367 118.014 245.239 112.963C246.579 110.942 247.535 108.69 248.06 106.323C248.521 103.579 249.085 100.836 249.572 98.0922C250.06 95.3487 250.419 92.7078 250.957 90.0668C251.419 87.8618 252.47 85.8619 252.752 83.6056C252.957 80.9356 253.008 78.2561 252.906 75.5803C252.906 72.6317 252.906 69.6831 252.906 66.7345C252.872 64.2112 252.606 61.6963 252.111 59.2219C251.849 56.9556 251.244 54.7423 250.316 52.6581C249.433 50.5928 248.268 48.6599 246.855 46.9147C245.312 45.2187 243.678 43.6095 241.957 42.0944C240.891 41.2377 240.031 40.1523 239.441 38.9186C238.851 37.6848 238.545 36.3342 238.547 34.9665C238.534 32.2639 238.791 29.5667 239.316 26.9155C240.328 21.6841 240.869 16.3724 240.932 11.0444C240.932 7.32659 240.778 2.30114 236.881 0.37814C235.547 -0.288499 234.47 0.378155 233.24 0.993515C230.676 2.24987 227.599 1.81398 224.83 2.73702C222.558 3.32638 220.256 3.7886 217.933 4.12156C215.369 4.63436 212.805 4.83948 210.241 5.40356C207.677 5.96764 205.113 7.12144 202.549 7.96756C199.985 8.81368 197.421 9.50599 194.857 10.4034C192.464 11.3173 190.127 12.3703 187.857 13.5571C185.289 14.7841 182.643 15.8377 179.934 16.7108C177.402 17.697 174.772 18.4104 172.088 18.8389C169.668 19.0951 167.227 19.0951 164.807 18.8389C160.195 18.0067 155.483 17.877 150.833 18.4543C145.705 19.5056 141.295 23.1208 137.038 25.9412C134.731 27.454 132.449 29.0693 130.013 30.3513C127.577 31.6333 125.372 31.8897 123.244 33.1461C121.116 34.4024 119.296 36.069 117.142 37.2485C114.988 38.4279 112.68 39.6073 110.475 40.9406C107.898 42.4374 105.152 43.6251 102.296 44.4789C99.7322 45.2738 97.3477 46.2481 94.8093 47.0429C93.3935 47.4399 91.9422 47.6976 90.4762 47.8121C89.2754 47.8211 88.0764 47.9067 86.8865 48.0685C85.9978 48.3293 85.1385 48.6816 84.3225 49.1198C82.7838 49.7818 81.1261 50.1221 79.451 50.1197C74.4769 50.3248 70.0411 50.1198 65.7849 52.9914C64.794 53.7129 63.7064 54.2912 62.5542 54.7093C61.5462 54.9741 60.5604 55.317 59.6057 55.7349C57.8846 56.6882 56.2763 57.8321 54.811 59.145C53.2856 60.4865 51.9409 62.0207 50.811 63.7089C49.3254 65.9221 47.2706 67.6937 44.8627 68.8369C42.5807 69.9651 40.2987 70.9907 38.1193 72.324C35.9399 73.6573 33.6323 75.2469 31.3503 76.6571C26.6839 79.5801 21.9917 82.5287 17.197 85.2209C14.9407 86.5029 12.6074 87.6311 10.428 88.99C8.24862 90.3489 6.68473 92.9385 4.32585 92.6052C4.09509 92.6052 3.99253 92.9385 4.32585 92.9642C4.95163 93.0552 5.59018 92.9905 6.185 92.7758C6.77981 92.5612 7.31243 92.2031 7.73585 91.7334L8.37685 91.1693C7.29997 92.4001 6.40265 93.7334 5.24885 95.0154C3.75772 96.2729 2.12231 97.3488 0.377188 98.2204C-3.16113 100.502 -3.05854 104.964 -2.95598 108.733C-2.82778 114.604 -2.95598 120.476 -2.95598 126.347C-2.95598 132.219 -2.82772 138.424 -3.21232 144.475C-3.59692 150.526 -3.67396 156.423 -4.62264 162.269C-5.05852 164.833 -5.54558 167.397 -5.80198 170.141C-6.05838 172.884 -5.93018 175.986 -5.80198 178.935C-5.80198 184.986 -5.80198 191.012 -5.80198 197.063C-5.73756 200.112 -5.89178 203.163 -6.26348 206.19C-6.67372 208.96 -7.21224 211.703 -7.62248 214.447C-8.41732 220.113 -8.28912 225.779 -8.90448 231.446C-9.51984 237.112 -11.4685 243.112 -12.4428 249.009C-13.3724 254.467 -13.8952 259.986 -14.0068 265.521C-14.0068 277.162 -13.1863 288.905 -14.0068 300.52C-14.8273 312.135 -17.3657 323.083 -16.9555 334.493C-16.7012 342.133 -15.1581 349.674 -12.3915 356.8C-9.82748 362.825 -5.64812 367.927 1.42852 367.056C4.15266 366.595 6.90032 366.287 9.65885 366.133C12.5305 366.133 15.3766 365.646 18.2227 365.312C20.8316 364.769 23.4678 364.367 26.1198 364.107C28.8672 364.005 31.6182 364.108 34.3502 364.415C37.0746 364.842 39.8239 365.09 42.5807 365.158C45.2371 365.064 47.8839 364.79 50.5034 364.338C53.375 363.876 56.2467 363.235 59.144 363.03C61.9196 362.876 64.7015 362.876 67.477 363.03C79.2869 363.242 91.0963 362.582 102.809 361.056C105.373 360.748 108.091 361.056 110.655 360.594C113.219 360.133 116.142 359.133 118.937 358.569C124.803 357.123 130.876 356.706 136.885 357.338C142.498 357.906 148.142 358.103 153.781 357.928C159.686 358.219 165.602 358.15 171.499 357.723C177.344 356.805 183.231 356.18 189.139 355.851C195.216 355.851 201.344 356.338 207.42 355.851C210.266 355.569 213.061 355.133 215.907 355.005C218.753 354.877 221.599 355.005 224.471 355.005C227.343 355.005 230.266 354.466 233.163 354.236C236.06 354.005 239.034 353.954 241.983 353.928C247.957 353.928 253.931 354.082 259.931 353.928C265.931 353.774 271.52 352.979 277.341 352.518C283.161 352.056 289.084 352.031 294.981 352.056C300.859 351.941 306.74 352.146 312.595 352.672C318.061 353.415 323.597 353.492 329.082 352.902C330.185 352.749 331.287 352.569 332.364 352.313C332.877 352.185 333.902 352.159 334.159 351.646C334.415 351.133 333.569 349.98 333.108 349.518Z" fill="#202147"/>
<path d="M53.2213 123.348H54.0931H54.6316L54.9904 123.065C56.4776 121.809 57.9904 120.502 59.5288 119.399L60.1441 118.937L61.4261 117.963L62.3491 117.194C62.6844 116.868 63.0445 116.567 63.4261 116.297C64.0185 115.898 64.679 115.611 65.3748 115.45C66.274 115.151 67.1347 114.747 67.9388 114.245C69.4655 113.309 71.0401 112.453 72.6564 111.681C74.3272 110.949 76.0395 110.316 77.7844 109.784C79.458 109.224 81.059 108.466 82.5534 107.528C83.9893 106.682 85.4765 105.938 86.9636 105.169C88.5168 104.366 89.9424 103.338 91.1941 102.118C92.4435 101.133 93.9126 100.464 95.4761 100.169C96.3582 99.9548 97.217 99.6542 98.0401 99.2716C98.6738 98.9818 99.3709 98.8583 100.066 98.9127H100.809H102.168V97.6306V96.2717H99.6041C99.0927 96.2679 98.5832 96.3369 98.0913 96.4768C97.6474 96.6141 97.218 96.7944 96.8093 97.0152C96.5023 97.1653 96.1854 97.2939 95.8606 97.3999L95.2196 97.5793C93.9574 97.8708 92.7288 98.2919 91.5531 98.8357C90.6162 99.3281 89.7532 99.9495 88.9891 100.682C88.502 101.134 87.9789 101.545 87.4251 101.912C86.5962 102.405 85.7402 102.85 84.8611 103.246C84.1688 103.579 83.4766 103.912 82.8099 104.297L81.6048 105.015C80.4573 105.729 79.2574 106.354 78.0153 106.887C77.2461 107.194 76.4511 107.451 75.6819 107.707C74.9127 107.964 73.7078 108.348 72.7591 108.758C71.0705 109.469 69.4188 110.265 67.8104 111.143L66.9388 111.656C66.437 111.973 65.9145 112.255 65.3748 112.502L64.5029 112.784C63.9566 112.922 63.4244 113.111 62.9133 113.348C62.0859 113.796 61.319 114.347 60.6313 114.989C59.939 115.604 59.1955 116.168 58.4519 116.732L57.9391 117.143C56.294 118.332 54.7268 119.625 53.2469 121.014L52.6059 121.732L52.9136 122.527L53.2213 123.348ZM47.0164 195.857C47.6062 195.216 48.1959 194.575 48.8113 193.96C49.4266 193.345 50.0933 192.627 50.7343 191.909C51.3753 191.191 51.4265 191.114 51.8111 190.729L52.8624 189.678C53.5716 189.027 54.2314 188.324 54.8366 187.576L55.2469 187.012C55.7501 186.233 56.3935 185.555 57.1443 185.012C57.7083 184.678 58.298 184.371 58.8878 184.089C59.5732 183.756 60.2408 183.388 60.8878 182.986L62.0159 182.294C64.1184 180.961 66.2465 179.73 68.3746 178.371C69.1838 177.906 70.0442 177.536 70.9386 177.268L72.1949 176.833C73.4938 176.358 74.754 175.784 75.9641 175.115C76.6037 174.761 77.2202 174.367 77.8101 173.935L78.2716 173.576C78.4919 173.362 78.7423 173.18 79.0151 173.038C79.3192 172.931 79.6423 172.887 79.9639 172.91H81.3741C81.6555 172.936 81.9387 172.936 82.2201 172.91C82.8806 172.834 83.5229 172.643 84.1176 172.346C84.5235 172.097 84.887 171.786 85.1944 171.423L85.5791 171.038C85.9191 170.823 86.2798 170.642 86.6559 170.499L87.0149 170.371L88.1174 169.858L89.2199 169.32C89.68 169.17 90.1517 169.059 90.6301 168.987H90.8864C91.433 168.919 91.9489 168.696 92.3736 168.346C92.9724 167.727 93.3894 166.955 93.5788 166.115V165.833C93.5788 165.833 93.8351 165.218 95.2966 164.192C95.7784 163.904 96.2955 163.68 96.8349 163.525C97.5436 163.308 98.2238 163.007 98.8606 162.628C99.5014 162.166 100.035 161.571 100.425 160.884C100.598 160.595 100.795 160.32 101.014 160.064C101.911 159.097 102.981 158.305 104.168 157.731C104.698 157.552 105.174 157.244 105.553 156.833C106.937 155.936 108.347 155.141 109.758 154.269L110.783 153.654C112.85 152.474 114.845 151.173 116.757 149.757C117.566 149.194 118.424 148.704 119.321 148.295C120.342 147.821 121.313 147.245 122.219 146.577C122.836 146.134 123.488 145.74 124.167 145.398L125.013 144.936L127.295 143.577L128.552 142.834C129.38 142.333 130.236 141.879 131.116 141.475C132.403 140.882 133.645 140.196 134.833 139.424C135.782 138.783 136.808 138.244 137.885 137.655C138.961 137.065 139.679 136.706 140.449 136.168C141.178 135.717 141.931 135.306 142.705 134.937C144.012 134.391 145.251 133.694 146.397 132.86C147.1 132.359 147.847 131.921 148.628 131.552L149.038 131.347C149.549 131.079 150.038 130.77 150.499 130.424C150.922 130.083 151.388 129.799 151.884 129.578C152.574 129.323 153.303 129.193 154.038 129.193H155.089C156.423 129.005 157.768 128.902 159.115 128.886H165.037C165.571 128.876 166.105 128.927 166.627 129.04C168.195 129.366 169.794 129.52 171.396 129.501H173.601H175.498C177.068 129.543 178.638 129.449 180.191 129.219L182.473 128.86C184.15 128.619 185.805 128.241 187.421 127.732C189.528 127.122 191.49 126.093 193.19 124.706C193.864 124.141 194.626 123.691 195.446 123.373L196.472 123.117C197.147 122.994 197.808 122.805 198.446 122.553C199.504 122.041 200.656 121.753 201.831 121.707H203.267C204.138 121.707 205.01 121.707 205.831 121.707C208.109 121.45 210.364 121.013 212.574 120.399L213.625 120.143C214.397 119.959 215.158 119.737 215.907 119.476C216.548 119.245 217.189 118.937 217.804 118.655C218.42 118.373 218.83 118.168 219.343 117.963C220.705 117.473 222.102 117.087 223.522 116.809C224.497 116.579 225.471 116.373 226.42 116.091L227.086 115.886C228.9 115.524 230.603 114.743 232.06 113.604L232.778 112.989L232.471 112.143L232.112 111.245H230.701L230.368 111.527C228.732 112.599 226.889 113.316 224.958 113.63L223.65 113.938L221.984 114.348C220.226 114.708 218.509 115.241 216.856 115.938C212.377 117.959 207.514 118.991 202.6 118.963H202.292C201.214 118.927 200.135 119.039 199.087 119.296C198.569 119.455 198.063 119.652 197.575 119.886C197.115 120.105 196.634 120.277 196.139 120.399L195.626 120.527C194.842 120.638 194.081 120.872 193.37 121.219C192.583 121.634 191.844 122.132 191.165 122.707L190.498 123.194C188.751 124.368 186.777 125.163 184.703 125.527C183.547 125.79 182.373 125.97 181.191 126.065C180.561 126.12 179.936 126.214 179.319 126.347C178.778 126.464 178.23 126.541 177.678 126.578H177.165H175.934H174.601H172.524H170.704C169.588 126.56 168.478 126.414 167.396 126.142C166.707 125.983 166.001 125.914 165.294 125.937H159.217C158.235 125.885 157.251 125.885 156.268 125.937H155.217C153.203 125.926 151.221 126.448 149.474 127.45C148.756 127.937 147.987 128.373 147.218 128.809C146.212 129.363 145.236 129.971 144.295 130.629C143.742 131.011 143.149 131.329 142.525 131.578L141.602 132.014C140.72 132.469 139.864 132.974 139.038 133.527L138.423 133.911C137.511 134.474 136.569 134.988 135.603 135.45C134.93 135.768 134.286 136.146 133.68 136.578L132.628 137.244C132.082 137.554 131.517 137.828 130.936 138.065L129.834 138.552C128.859 139.039 127.911 139.603 126.988 140.167L126.295 140.603L124.449 141.68C122.988 142.526 121.475 143.398 120.065 144.398C119.347 144.885 118.578 145.27 117.783 145.706C116.691 146.228 115.652 146.855 114.68 147.577C112.811 148.984 110.83 150.236 108.758 151.321L107.706 151.91C107.014 152.269 106.347 152.628 105.681 153.039L105.142 153.398C104.852 153.524 104.591 153.707 104.373 153.936C103.732 154.372 103.117 154.808 102.45 155.192C102.12 155.364 101.777 155.51 101.425 155.628C100.814 155.856 100.23 156.149 99.6811 156.5L98.5016 157.346C97.9632 157.756 97.399 158.167 96.8349 158.526C95.6207 159.207 94.3177 159.716 92.9633 160.038C92.1171 160.269 91.2454 160.526 90.3993 160.833L89.2711 161.32C88.7609 161.58 88.229 161.794 87.6814 161.961C87.0404 162.115 86.3739 162.243 85.7329 162.346L84.0663 162.679C83.1964 162.903 82.3402 163.177 81.5023 163.5L80.8613 163.731C79.9305 164.01 78.9612 164.14 77.9896 164.115H77.7331H76.0153H73.8871C73.0277 164.097 72.1687 164.166 71.3231 164.32C69.4231 164.822 67.6669 165.762 66.1951 167.064L65.5798 167.551C65.1182 167.884 64.6568 168.166 64.1696 168.474C63.7616 168.697 63.3677 168.946 62.9901 169.217C62.3725 169.642 61.7818 170.105 61.2211 170.602L60.5801 171.14C58.9901 172.325 57.2695 173.323 55.4521 174.115L53.7854 174.91C52.8705 175.293 52.0088 175.793 51.2214 176.397C50.7659 176.758 50.3453 177.162 49.9651 177.602C49.5862 178.011 49.1745 178.388 48.7343 178.73C48.0209 179.261 47.405 179.912 46.9139 180.653C46.6641 181.126 46.2416 181.484 45.7344 181.653C45.3504 181.802 45.0014 182.029 44.7089 182.32C44.5102 182.488 44.3296 182.677 44.1704 182.884C43.9653 183.089 43.8371 183.243 43.6833 183.371L43.0936 183.704L42.2988 184.191C41.7987 184.53 41.3192 184.898 40.8629 185.294C40.4066 185.69 39.9272 186.058 39.4271 186.396C38.4528 187.037 37.5041 187.704 36.5298 188.396C35.5554 189.089 34.735 189.678 33.8119 190.294C32.8889 190.909 31.453 191.935 30.2736 192.858C29.4788 193.447 28.7096 194.037 27.8891 194.601C26.1181 195.774 24.2866 196.852 22.4021 197.832L21.8893 198.114C20.0338 199.076 18.3102 200.274 16.7613 201.678C16.3819 202.061 16.0225 202.463 15.6844 202.883C15.4059 203.226 15.1061 203.551 14.7869 203.857C14.4526 204.137 14.0704 204.354 13.6588 204.498C13.0723 204.708 12.5197 205.001 12.0179 205.37C11.582 205.729 11.1974 206.088 10.8128 206.472C10.4066 206.882 9.96942 207.259 9.5051 207.601C8.68076 208.178 7.82475 208.709 6.9411 209.19L6.63343 209.395C5.09503 210.267 3.63358 211.242 2.1721 212.216L0.505437 213.318L-2.54573 215.216C-4.69397 216.454 -6.75813 217.833 -8.7249 219.344L-9.1864 219.703L-9.41723 223.805L-7.13523 221.908C-5.94521 220.925 -4.69491 220.017 -3.39174 219.19L0.838769 216.472C3.40277 214.78 6.24879 213.011 8.99227 211.344C9.99817 210.775 10.966 210.141 11.8896 209.447C12.2815 209.141 12.65 208.807 12.9921 208.447C13.3325 208.039 13.7401 207.692 14.1973 207.421L14.6331 207.267C15.3863 206.998 16.0821 206.589 16.6843 206.062C17.144 205.632 17.5724 205.169 17.9663 204.678C18.274 204.319 18.5818 203.96 18.9151 203.626C20.4656 202.26 22.1899 201.105 24.0431 200.191C26.185 199.065 28.2493 197.797 30.2223 196.396L36.2476 192.14L37.5809 191.14L38.9143 190.14L40.1193 189.371C40.709 189.012 41.2732 188.653 41.8116 188.268C42.2134 187.982 42.5985 187.674 42.9653 187.345C43.3812 186.975 43.8273 186.641 44.2986 186.345L44.6063 186.166C44.9818 185.962 45.3418 185.73 45.6831 185.473C45.9244 185.27 46.1397 185.037 46.3241 184.781C46.4037 184.666 46.4987 184.563 46.6063 184.473C46.8021 184.311 47.0174 184.173 47.2473 184.063C47.8879 183.808 48.4526 183.393 48.8881 182.858C49.0163 182.653 49.1702 182.448 49.2728 182.243L49.5291 181.884C49.7748 181.59 50.0595 181.331 50.3753 181.114L50.8881 180.73C51.3064 180.363 51.7005 179.969 52.0676 179.55C52.358 179.217 52.6753 178.909 53.0163 178.627C53.8071 178.043 54.6686 177.56 55.5803 177.192L56.7341 176.653C58.7545 175.804 60.6586 174.701 62.4004 173.371C63.3491 172.602 64.3491 171.91 65.3491 171.217C66.3491 170.525 66.9901 170.089 67.7849 169.474C69.3662 167.966 71.4252 167.059 73.6051 166.91H73.8871H75.8871H78.0664C78.7439 166.918 79.421 166.875 80.0921 166.782C80.9064 166.636 81.7049 166.413 82.4766 166.115C82.7702 165.997 83.0697 165.894 83.3739 165.807C84.4252 165.491 85.4958 165.243 86.5789 165.064H86.9123C87.9105 164.922 88.8906 164.673 89.8353 164.32L90.5276 164.038C91.012 163.807 91.5083 163.601 92.0146 163.423C91.5906 163.925 91.2763 164.51 91.0916 165.141C91.0916 165.32 91.0917 165.525 90.8609 165.756C90.6302 165.987 90.8608 165.961 89.9378 166.089C89.5031 166.158 89.0744 166.261 88.6558 166.397C87.3738 166.91 86.0918 167.551 84.9636 168.115C84.3488 168.402 83.8058 168.822 83.3739 169.346C83.1821 169.537 82.9539 169.687 82.7029 169.789C82.4519 169.89 82.1831 169.94 81.9124 169.935H80.1178C79.4989 169.919 78.8821 170.014 78.2973 170.217C77.5534 170.525 76.8682 170.959 76.2718 171.499C75.9916 171.746 75.6913 171.969 75.3743 172.166C74.1405 172.911 72.8349 173.529 71.4771 174.012L70.2719 174.422C69.3892 174.7 68.5315 175.052 67.7079 175.474C66.99 175.833 66.3234 176.269 65.6311 176.704C65.0689 177.093 64.4869 177.453 63.8876 177.781C62.8107 178.345 61.8108 179.012 60.8364 179.627L59.9646 180.191C59.2807 180.629 58.57 181.023 57.8366 181.371C57.2982 181.653 56.7852 181.909 56.2724 182.217C55.1101 182.897 54.1121 183.825 53.3496 184.935C52.5796 185.925 51.7215 186.843 50.7856 187.678L50.5034 187.96C49.9137 188.55 49.3753 189.191 48.8113 189.806C48.2472 190.422 47.9908 190.755 47.5549 191.191L46.3498 192.422C45.7344 193.063 45.1191 193.678 44.5294 194.319C43.6518 195.356 42.6629 196.293 41.5808 197.114C40.2988 198.037 39.3245 198.78 38.4271 199.55C37.2989 200.531 36.0699 201.391 34.7606 202.114C33.93 202.527 33.0735 202.887 32.1966 203.19C31.6325 203.396 31.0684 203.626 30.5299 203.883C29.6922 204.228 28.8362 204.528 27.9659 204.78L26.5558 205.242C25.6013 205.638 24.7311 206.212 23.9918 206.934L23.4533 207.395C22.7866 207.934 22.12 208.421 21.4278 208.934C19.7583 210.079 18.2192 211.403 16.8381 212.882C16.2484 213.549 15.71 214.267 15.1716 214.985C14.6332 215.703 14.5562 215.78 14.2229 216.164C13.8896 216.549 13.505 217.036 13.1204 217.446C12.7358 217.857 12.1205 218.575 11.6589 219.164C10.7894 220.363 9.99311 221.613 9.27443 222.908C8.50761 224.238 7.65096 225.514 6.71043 226.728C5.17203 228.651 3.45406 230.497 1.8131 232.292L0.608097 233.6C-0.355203 234.636 -1.26244 235.723 -2.10974 236.856C-2.43165 237.328 -2.81057 237.758 -3.2379 238.138C-3.42995 238.28 -3.64754 238.385 -3.8789 238.445C-4.28554 238.596 -4.6729 238.794 -5.03273 239.035C-5.36175 239.274 -5.66272 239.549 -5.93007 239.856L-6.3404 240.24C-6.94762 240.729 -7.60016 241.158 -8.28906 241.522L-9.41723 242.138C-10.3106 242.612 -11.1676 243.152 -11.9812 243.753C-12.165 243.873 -12.3366 244.01 -12.4939 244.163L-12.8529 244.445L-13.0067 245.138L-11.7504 245.522L-13.0067 245.266L-13.6991 248.753L-10.6736 246.189C-10.4522 245.979 -10.2117 245.79 -9.95557 245.625C-9.31457 245.189 -8.59668 244.804 -7.9044 244.42L-6.41724 243.599C-5.80627 243.239 -5.21565 242.845 -4.64807 242.42C-4.38763 242.203 -4.13945 241.972 -3.90457 241.727C-3.67381 241.467 -3.40599 241.243 -3.10973 241.061L-2.69956 240.907C-2.31886 240.775 -1.95677 240.594 -1.62257 240.368C-1.01569 239.902 -0.480172 239.349 -0.0329027 238.728C1.27474 237.035 2.73623 235.42 4.14643 233.882L6.1206 231.677C8.07959 229.602 9.79968 227.314 11.2486 224.856C11.8896 223.703 12.5819 222.523 13.3254 221.446C13.8614 220.701 14.4438 219.99 15.0691 219.318L16.0946 218.113L17.3253 216.549C17.7355 216.036 18.1459 215.498 18.5818 214.985C19.3858 214.028 20.2978 213.168 21.2996 212.421L24.9404 209.575L25.7096 208.959C26.3389 208.348 27.0903 207.876 27.9146 207.575C29.1293 207.236 30.32 206.817 31.4786 206.319C32.0427 206.062 32.6324 205.831 33.1964 205.626C34.1318 205.274 35.0476 204.872 35.9399 204.421C37.2109 203.751 38.4207 202.97 39.5553 202.088L40.2219 201.524C41.0937 200.806 41.9654 200.114 42.7859 199.473C44.3292 198.433 45.7485 197.22 47.0164 195.857ZM115.219 93.0923H116.603L116.937 92.8616C117.34 92.6023 117.77 92.3874 118.219 92.2206L118.885 91.9386C119.549 91.6157 120.169 91.2108 120.731 90.7335L121.296 90.3232C121.81 89.9986 122.373 89.7564 122.962 89.6053L123.654 89.3489C124.167 89.1951 124.654 88.9899 125.167 88.7848L126.526 88.272L127.372 87.99C127.911 87.8289 128.442 87.6406 128.962 87.4259L130.064 86.9387C130.653 86.6296 131.272 86.3806 131.91 86.1952L132.603 86.0157C133.384 85.9551 134.135 85.685 134.775 85.2337C135.416 84.7825 135.923 84.1669 136.244 83.4517C136.372 83.1697 136.449 82.8876 136.551 82.6056C136.677 82.186 136.849 81.7818 137.064 81.4005C137.429 80.8615 137.869 80.3779 138.372 79.9647L138.833 79.5288C140.237 78.1758 141.556 76.7372 142.782 75.2213C143.139 74.7579 143.572 74.359 144.064 74.0418C144.643 73.7465 145.267 73.5473 145.91 73.4521L146.525 73.2983C147.287 73.1029 148.026 72.8279 148.73 72.4778L150.038 71.9394C150.781 71.606 151.525 71.2983 152.269 70.9137C153.36 70.3133 154.414 69.6454 155.422 68.9138L157.089 67.7857C158.186 67.1312 159.316 66.5322 160.473 65.9909L162.345 65.0935C163.068 64.7444 163.824 64.4695 164.601 64.273C165.212 64.0898 165.798 63.8315 166.345 63.5038L166.986 63.1705C168.55 62.4269 170.242 61.8372 171.858 61.2475L172.729 60.9398C173.627 60.6321 174.499 60.2475 175.293 59.8885C176.088 59.5296 177.293 59.0424 178.319 58.7091L180.293 58.145L180.857 57.9912C181.421 57.9912 181.96 57.6835 182.498 57.504L183.755 57.0938L185.19 56.7605L186.524 56.4528C187.407 56.1975 188.265 55.8628 189.088 55.4528L189.395 55.3246C190.251 54.9098 191.169 54.6411 192.113 54.5298C192.994 54.447 193.832 54.1083 194.523 53.5555C195.627 52.9125 196.864 52.535 198.139 52.4529C198.831 52.4529 199.523 52.2222 200.19 52.0684L200.856 51.8889C202.985 51.3504 205.113 50.812 207.215 50.2223L208.01 49.9915C208.831 49.7607 209.625 49.5556 210.395 49.2736C211.099 49.032 211.77 48.7048 212.394 48.2993L213.112 47.889C213.437 47.7604 213.771 47.6576 214.112 47.5814C214.579 47.4955 215.035 47.3579 215.471 47.1711C216.251 46.7395 216.905 46.1121 217.369 45.3507L217.83 44.6584L217.497 43.9405L217.061 43.1969H215.625L215.24 43.7097C214.676 44.4533 214.471 44.6584 213.984 44.7609C213.084 44.9231 212.217 45.2351 211.42 45.684C209.972 46.4756 208.418 47.0542 206.805 47.4019L206.318 47.5301C205.241 47.8377 204.138 48.0942 203.061 48.3762L200.215 49.0941C199.446 49.2992 198.677 49.4018 197.908 49.53C196.752 49.6795 195.611 49.9283 194.498 50.2735C193.964 50.4896 193.457 50.7648 192.985 51.094L192.395 51.4786C192.042 51.6135 191.67 51.6914 191.293 51.7094C190.78 51.7479 190.272 51.8425 189.78 51.9914C189.062 52.2478 188.395 52.5555 187.703 52.8632L187.37 53.017C186.421 53.4138 185.433 53.7061 184.421 53.8888C183.242 54.1452 182.114 54.5042 180.96 54.8375C180.267 55.0682 179.55 55.2733 178.857 55.4528C177.529 55.8496 176.228 56.3291 174.96 56.8887L173.037 57.6322L170.986 58.4014C169.806 58.8117 168.627 59.2219 167.473 59.6834C166.319 60.145 165.755 60.4014 164.909 60.8372L164.601 61.0167C164.37 61.1516 164.13 61.2715 163.884 61.3757H163.345C163.058 61.4199 162.775 61.4885 162.499 61.5808C161.912 61.7936 161.345 62.0597 160.807 62.3756L160.345 62.6064L157.525 63.9653C156.217 64.6556 154.957 65.4352 153.756 66.2985L152.576 67.0934C151.073 68.0117 149.495 68.8008 147.859 69.4523L147.294 69.7087C146.47 70.0626 145.611 70.329 144.73 70.5035C143.764 70.6854 142.841 71.051 142.013 71.5804C141.115 72.2585 140.328 73.0715 139.679 73.9905C139.372 74.3751 139.064 74.7854 138.731 75.1444C138.397 75.5033 137.756 76.093 137.269 76.5545C136.342 77.3329 135.484 78.1908 134.705 79.1185C134.175 79.9069 133.769 80.7715 133.5 81.6825C133.412 81.9892 133.283 82.2825 133.116 82.5543C132.807 82.7245 132.467 82.8292 132.116 82.862C130.701 83.2203 129.319 83.7007 127.988 84.2978C127.244 84.5799 126.526 84.8875 125.783 85.1439L123.885 85.8619L122.757 86.2721L121.962 86.5541C121.154 86.7777 120.378 87.1053 119.655 87.5285L118.757 88.1951C118.408 88.4963 118.03 88.7625 117.629 88.9899L116.962 89.2976C116.278 89.563 115.632 89.9164 115.039 90.3489L114.27 91.0412L114.578 91.9129L115.219 93.0923ZM239.137 197.986H238.419C237.227 197.945 236.042 198.182 234.958 198.678C233.547 199.345 232.137 199.985 230.701 200.55C230.112 200.78 229.522 200.934 228.907 201.114C228.185 201.306 227.475 201.537 226.778 201.806C225.498 202.334 224.249 202.934 223.035 203.601L221.83 204.216C220.884 204.654 219.975 205.168 219.112 205.754C218.868 205.962 218.591 206.127 218.292 206.242H217.933C217.593 206.312 217.259 206.406 216.933 206.524C216.4 206.795 215.908 207.14 215.471 207.549C214.974 207.932 214.421 208.235 213.83 208.447C213.17 208.72 212.494 208.951 211.805 209.139C210.204 209.565 208.687 210.258 207.318 211.19C206.571 211.78 205.877 212.432 205.241 213.139L204.651 213.78C203.841 214.678 202.985 215.534 202.087 216.344C201.104 217.166 200.018 217.855 198.857 218.395C197.934 218.831 197.062 219.369 196.164 219.882L195.19 220.421C194.51 220.812 193.808 221.163 193.088 221.472L191.523 222.19L191.216 222.369C190.754 222.63 190.264 222.837 189.754 222.985C189.391 223.069 189.023 223.129 188.652 223.164H187.96C185.147 223.703 182.507 224.917 180.268 226.702C179.037 227.6 178.063 228.266 177.037 228.882C175.896 229.522 174.807 230.25 173.781 231.061C172.883 231.826 172.027 232.64 171.217 233.497C170.253 234.563 169.188 235.533 168.037 236.394C167.557 236.724 167.051 237.016 166.524 237.266C165.986 237.548 165.448 237.856 164.935 238.189C163.988 238.82 163.127 239.57 162.371 240.42C162.111 240.702 161.872 241.002 161.653 241.317C161.32 241.851 160.885 242.313 160.371 242.676C160.038 242.825 159.683 242.92 159.32 242.958C158.659 243.047 158.017 243.246 157.422 243.548C157.128 243.727 156.846 243.924 156.576 244.138L156.192 244.42C155.798 244.672 155.387 244.895 154.961 245.086L154.628 245.24C153.86 245.64 153.138 246.122 152.474 246.676C152.064 246.984 151.653 247.291 151.243 247.548L150.448 248.009C149.593 248.448 148.807 249.009 148.115 249.676C147.769 250.06 147.443 250.462 147.141 250.881C146.802 251.378 146.406 251.835 145.961 252.24C145.448 252.65 144.884 252.983 144.346 253.342C143.728 253.682 143.137 254.068 142.577 254.496C141.492 255.355 140.519 256.345 139.679 257.445C138.817 258.609 138.07 259.854 137.449 261.163C136.989 262.119 136.466 263.044 135.885 263.932C135.628 264.291 135.372 264.675 135.09 265.034C134.808 265.393 134.115 266.419 133.68 267.137C133.028 268.272 132.462 269.455 131.987 270.675V270.983C131.386 272.348 130.881 273.753 130.475 275.188C130.173 276.184 129.751 277.139 129.218 278.034L128.782 278.854C128.151 280.113 127.719 281.463 127.5 282.854V283.444C127.5 283.854 127.347 284.264 127.244 284.649C127.168 284.948 127.065 285.24 126.936 285.521C126.808 285.854 126.68 286.187 126.577 286.546C126.339 287.597 126.261 288.677 126.347 289.751V290.546V291.905H127.629H129.013V289.828C128.924 288.855 129.011 287.873 129.27 286.931C129.643 285.761 129.951 284.571 130.193 283.367V282.957C130.435 281.747 130.876 280.585 131.5 279.521C132.229 278.324 132.782 277.029 133.141 275.675C133.481 274.51 133.9 273.371 134.398 272.265L134.577 271.854C135.068 270.557 135.686 269.312 136.423 268.137C136.756 267.65 137.09 267.162 137.449 266.701C137.808 266.239 138.269 265.573 138.628 264.983C139.063 264.284 139.448 263.556 139.782 262.803C139.987 262.393 140.167 261.983 140.397 261.598C141.54 259.362 143.246 257.463 145.346 256.086L145.859 255.778C146.866 255.218 147.79 254.519 148.602 253.701C148.935 253.353 149.235 252.976 149.5 252.573C149.853 252.048 150.285 251.581 150.782 251.189L152.012 250.445C152.678 250.074 153.32 249.663 153.935 249.214L154.499 248.753L155.345 248.112L156.243 247.676L157.038 247.291L158.115 246.599C158.535 246.246 159.024 245.984 159.55 245.83C160.657 245.74 161.711 245.321 162.576 244.625C163.095 244.131 163.567 243.59 163.986 243.009C164.242 242.676 164.499 242.343 164.781 242.035C165.446 241.317 166.215 240.704 167.063 240.215L167.858 239.779C168.712 239.337 169.527 238.822 170.294 238.24C171.315 237.451 172.283 236.594 173.191 235.676L173.832 235.035C174.419 234.375 175.053 233.758 175.729 233.189C176.549 232.567 177.405 231.993 178.293 231.471L178.986 231.061C179.832 230.548 180.652 229.984 181.55 229.395C182.89 228.403 184.324 227.544 185.831 226.831C186.984 226.383 188.191 226.09 189.421 225.959C190.606 225.741 191.749 225.334 192.805 224.754L194.395 224.01C195.267 223.6 196.113 223.19 196.959 222.703C197.805 222.215 199.267 221.395 200.472 220.805C202.764 219.577 204.821 217.954 206.549 216.01C206.801 215.758 207.041 215.493 207.266 215.216C207.823 214.575 208.441 213.991 209.113 213.472C210.007 212.869 210.994 212.419 212.035 212.139L212.728 211.908C213.548 211.626 214.394 211.37 215.292 211.036C215.903 210.779 216.487 210.462 217.035 210.088C217.234 209.957 217.423 209.811 217.599 209.652C217.825 209.427 218.096 209.252 218.394 209.139H218.779C218.982 209.115 219.18 209.063 219.369 208.985C219.975 208.779 220.539 208.466 221.035 208.062C221.695 207.621 222.389 207.236 223.112 206.908L224.291 206.319C225.495 205.641 226.736 205.034 228.009 204.498C228.395 204.364 228.789 204.252 229.189 204.165L229.881 203.985C230.573 203.78 231.291 203.498 232.137 203.165C233.471 202.626 234.701 202.062 236.06 201.447C236.932 201.035 237.891 200.842 238.855 200.883H239.214L240.547 200.678V198.114L239.137 197.986ZM239.675 187.448L239.111 187.704C238.496 187.93 237.923 188.259 237.419 188.678C236.573 189.334 235.63 189.853 234.624 190.217L233.265 190.729C232.957 190.823 232.639 190.884 232.317 190.909H231.65C230.948 191.046 230.294 191.364 229.753 191.832C229.569 191.998 229.361 192.136 229.137 192.242C228.944 192.288 228.742 192.288 228.548 192.242C228.279 192.26 228.013 192.303 227.753 192.37C227.191 192.496 226.66 192.732 226.189 193.063C225.41 193.536 224.606 193.964 223.779 194.345L223.112 194.652L219.445 196.524L216.881 197.883C214.958 198.857 213.061 199.652 211.036 200.447L210.446 200.703C209.677 201.013 208.946 201.408 208.266 201.883C207.507 202.515 206.88 203.291 206.42 204.165L206.266 204.447C206.115 204.762 205.9 205.043 205.635 205.273C205.371 205.502 205.062 205.675 204.728 205.78C204.228 205.884 203.723 205.961 203.215 206.011L201.908 206.19L201.164 206.319C200.421 206.447 199.703 206.575 198.959 206.754C197.791 207.099 196.671 207.59 195.626 208.216L194.267 208.959C192.472 209.934 190.6 210.959 188.806 212.139C187.703 212.857 186.754 213.549 185.908 214.216L185.344 214.728C184.908 215.113 184.319 215.652 183.96 215.652H183.703H182.447V216.831V218.062L183.626 218.267H184.114C184.895 218.226 185.646 217.949 186.267 217.472C186.729 217.139 187.19 216.754 187.626 216.395L188.652 215.549C190.494 214.173 192.45 212.955 194.498 211.908L196.062 211.062C197.441 210.225 198.936 209.595 200.497 209.19C201.497 208.985 202.523 208.78 203.523 208.677H203.856C204.734 208.631 205.598 208.45 206.42 208.139C207.376 207.708 208.168 206.979 208.677 206.062L208.959 205.575C209.302 204.894 209.792 204.299 210.395 203.831C211.066 203.446 211.769 203.12 212.497 202.857L212.805 202.729C213.933 202.293 215.035 201.806 216.138 201.293C217.753 200.524 219.369 199.703 220.958 198.883L222.753 197.96C223.804 197.447 224.83 196.909 225.881 196.422H226.189C226.552 196.268 226.903 196.088 227.24 195.883L227.727 195.575C227.995 195.367 228.299 195.21 228.625 195.114C228.787 195.1 228.95 195.1 229.112 195.114C229.605 195.1 230.092 194.996 230.548 194.806C230.936 194.618 231.291 194.366 231.599 194.063L231.983 193.781C232.232 193.666 232.505 193.613 232.778 193.627H233.471C234.045 193.513 234.605 193.332 235.137 193.088L235.906 192.806C236.888 192.464 237.826 192.008 238.701 191.447L239.368 190.909C239.545 190.721 239.753 190.565 239.983 190.447L241.034 189.96L241.701 189.473L241.983 186.448L239.675 187.448ZM129.167 201.55C129.551 201.021 129.894 200.464 130.193 199.883L130.449 199.447C130.757 198.909 131.09 198.37 131.449 197.857L131.731 197.447C132.698 196.053 133.434 194.512 133.91 192.883C134.116 192.191 134.295 191.499 134.474 190.806C134.965 188.477 135.831 186.243 137.038 184.191C137.699 183.298 138.475 182.496 139.346 181.807L140.397 180.884L141.115 180.191C142.09 179.294 143.038 178.397 144.064 177.627C145.09 176.858 146.628 175.73 147.782 174.807L148.218 174.499C149.041 173.861 149.821 173.167 150.551 172.422C150.884 172.089 151.217 171.756 151.576 171.448C152.213 170.888 152.92 170.414 153.679 170.038C154.331 169.687 154.965 169.302 155.576 168.884C156.532 168.12 157.448 167.307 158.32 166.448L159.499 165.32C160.807 164.166 162.063 162.961 163.345 161.731C163.547 161.536 163.687 161.286 163.746 161.012C163.806 160.738 163.782 160.453 163.678 160.192L163.217 159.295H162.345H161.73L161.345 159.679C160.063 160.961 158.781 162.243 157.371 163.423L156.217 164.5C155.443 165.346 154.583 166.111 153.653 166.782C153.243 167.064 152.807 167.294 152.397 167.525C151.402 168.035 150.472 168.664 149.628 169.397L148.807 170.192C148.013 171.018 147.156 171.781 146.243 172.474C144.91 173.448 143.679 174.422 142.295 175.474C140.91 176.525 140.372 177.166 139.449 178.038L138.5 178.935L137.577 179.73C136.634 180.492 135.775 181.351 135.013 182.294C134.286 183.359 133.7 184.514 133.269 185.73L133.013 186.371C132.498 187.667 132.095 189.005 131.808 190.37L131.603 191.191C131.238 192.738 130.614 194.212 129.757 195.55L129.295 196.216L128.423 197.524L127.911 198.473C127.705 198.832 127.526 199.191 127.295 199.524C126.434 200.66 125.385 201.64 124.193 202.421C123.293 203.121 122.437 203.874 121.629 204.678L120.578 205.626C120.065 206.088 119.526 206.498 118.988 206.934C118.212 207.508 117.476 208.134 116.783 208.806L115.424 210.139C114.757 210.857 114.065 211.549 113.321 212.216C112.578 212.882 112.27 213.216 111.732 213.754C111.157 214.368 110.549 214.95 109.911 215.498C108.811 216.475 107.868 217.616 107.117 218.882C106.758 219.421 106.373 219.933 105.988 220.446C105.347 221.344 104.681 222.241 104.117 223.215C103.783 223.754 103.476 224.318 103.168 224.882C102.694 225.83 102.145 226.739 101.527 227.6C101.168 228.113 100.758 228.625 100.348 229.113C99.705 229.864 99.1059 230.652 98.5529 231.471L97.6041 232.984C96.9887 233.958 96.3991 234.933 95.7324 235.856C95.0658 236.779 94.8606 236.984 94.3991 237.522C93.7676 238.243 93.1852 239.006 92.6556 239.804C92.2966 240.343 91.9634 240.933 91.6301 241.497C91.1421 242.388 90.5938 243.244 89.9891 244.061C89.0694 245.145 88.0937 246.18 87.0661 247.163L86.8611 247.343C85.7842 248.419 84.7841 249.548 83.8354 250.624C82.7457 251.93 81.5814 253.171 80.3484 254.342C79.6562 254.958 78.9127 255.547 78.1691 256.137C76.4433 257.371 74.9133 258.857 73.6308 260.547C73.1614 261.215 72.6565 261.857 72.1181 262.47C71.6053 263.06 71.1181 263.65 70.6566 264.265C69.7957 265.538 69.0493 266.885 68.4259 268.29L68.2721 268.649C67.7682 269.511 67.3144 270.402 66.9131 271.316C66.6567 272.06 66.4003 272.803 66.0669 273.547C65.6891 274.32 65.243 275.058 64.7338 275.752L63.7081 277.341L63.5029 277.726C62.7216 278.973 62.0687 280.296 61.5543 281.675C61.1103 283.284 60.9541 284.959 61.0928 286.623C61.2372 288.014 61.0529 289.419 60.5544 290.725C60.2868 291.261 59.9781 291.776 59.6313 292.264C59.3764 292.687 59.1617 293.134 58.9903 293.597C58.9903 293.854 58.7596 294.136 58.6314 294.366C58.0915 295.226 57.4826 296.041 56.8109 296.802L55.6828 298.187C54.6315 299.597 53.5546 300.981 52.5803 302.417L52.1188 303.058C51.3737 304.019 50.7535 305.07 50.2728 306.186C49.8967 307.007 49.4139 307.774 48.8369 308.468C48.4224 308.994 48.0372 309.542 47.6831 310.109C47.0015 311.328 46.1367 312.435 45.1191 313.391L44.4268 314.135L44.7344 314.955L45.1961 315.878H46.6574L47.0164 315.571C48.1884 314.458 49.1907 313.18 49.9908 311.776C50.3031 311.269 50.6455 310.781 51.0163 310.314C51.5616 309.614 52.0585 308.877 52.5034 308.109C52.6703 307.777 52.8159 307.435 52.9393 307.084C53.0263 306.83 53.129 306.581 53.2469 306.34C53.4971 305.94 53.7711 305.554 54.0674 305.186L54.6316 304.443C55.5803 303.084 56.5545 301.725 57.5544 300.417L58.7596 298.93C59.4519 298.058 60.1697 297.212 60.7851 296.366C61.0538 295.938 61.2772 295.482 61.4518 295.007L61.7081 294.392C61.8776 294.082 62.066 293.782 62.2723 293.495C62.503 293.161 62.7081 292.828 62.9133 292.469C63.7603 290.626 64.1053 288.591 63.9133 286.572C63.8461 285.527 63.8977 284.477 64.0671 283.444C64.3886 282.19 64.9079 280.996 65.6054 279.905L65.9644 279.239C66.2978 278.675 66.6567 278.111 67.0413 277.572C67.5616 276.844 68.0326 276.081 68.4514 275.29C68.8491 274.456 69.2001 273.6 69.5028 272.726C69.7267 271.974 70.0009 271.237 70.3233 270.521L70.5539 270.06C71.1199 268.774 71.7798 267.531 72.5283 266.342C72.9535 265.741 73.4159 265.167 73.9128 264.624C74.4512 264.009 74.9641 263.393 75.4256 262.752C76.2236 261.604 77.1919 260.584 78.2973 259.727C80.9706 257.683 83.4124 255.353 85.5791 252.778C86.5383 251.608 87.5747 250.503 88.6814 249.471C89.8652 248.354 90.9866 247.173 92.0403 245.932C92.7153 245.015 93.332 244.056 93.8864 243.061L94.5786 241.881C95.1122 241.077 95.6945 240.307 96.3221 239.574C96.758 239.087 97.1683 238.574 97.5529 238.061C98.3221 237.035 98.9888 235.933 99.6554 234.856L100.45 233.6C101.047 232.706 101.698 231.85 102.399 231.036L103.322 229.856C104.067 228.816 104.743 227.728 105.347 226.6C105.578 226.164 105.809 225.728 106.065 225.292C106.706 224.215 107.424 223.215 108.168 222.164L108.86 221.19C109.091 220.882 109.296 220.549 109.501 220.215C109.706 219.882 109.937 219.523 110.193 219.19C110.588 218.689 111.044 218.241 111.552 217.857C112.256 217.264 112.924 216.631 113.552 215.959C114.014 215.472 114.475 215.011 114.962 214.575C115.45 214.139 116.424 213.139 117.142 212.395L118.68 210.882C119.267 210.344 119.883 209.839 120.526 209.37C121.09 208.908 121.654 208.472 122.193 207.985L123.065 207.216C124.052 206.306 125.088 205.451 126.167 204.652C127.329 203.787 128.342 202.739 129.167 201.55Z" fill="#EEDAAE"/>
</svg>
