<svg width="1163" height="172" viewBox="0 0 1163 172" fill="none" xmlns="http://www.w3.org/2000/svg">
<path d="M1162.92 358.982C1162.92 355.027 1162.04 351.073 1161.36 347.074C1161.14 343.37 1160.57 339.679 1159.67 336.021C1157.64 330.089 1151.62 325.147 1149.59 319.17C1147.33 311.114 1146.56 302.906 1147.29 294.727C1147.66 291.106 1147.66 287.473 1147.29 283.852C1146.61 280.123 1144.85 276.528 1144.45 272.754C1143.63 264.711 1142.35 256.712 1141.74 248.714C1141.13 240.716 1141.13 233.212 1139.57 225.528C1138.02 217.845 1134.9 210.97 1132.81 203.601C1131.79 199.961 1131.45 196.232 1130.44 192.547C1129.67 190.401 1129.11 188.225 1128.75 186.032C1128.75 184.01 1129.29 181.988 1128.75 180.011C1127.73 175.113 1120.49 172.956 1114.67 170.799C1110.85 169.343 1106.87 168.082 1102.76 167.025C1096.4 165.542 1090.79 163.385 1084.63 161.768C1075.64 160.134 1066.26 159.706 1057.02 160.509C1045.58 160.509 1034.15 161.498 1022.71 161.184C1016.71 161.223 1010.77 160.379 1005.32 158.712C1000.92 157.229 996.93 155.252 992.464 153.949C982.523 151.714 972.245 150.208 961.811 149.456C956.767 148.569 951.797 147.504 946.924 146.266C941.504 145.413 936.273 144.099 931.361 142.356C928.21 140.813 924.858 139.46 921.346 138.312C916.62 137.421 911.767 136.864 906.865 136.65C896.079 135.878 885.219 135.667 874.384 136.021C868.769 136.183 863.156 135.681 857.806 134.538C852.189 133.235 846.911 131.303 841.363 129.775C830.739 126.854 819.844 124.607 809.356 121.507C798.867 118.407 787.499 115.711 777.078 112.026C768.078 108.256 758.616 104.994 748.793 102.275C744.192 101.242 740.132 99.6692 735.733 98.5908C730.492 97.7162 725.151 97.1301 719.764 96.8384C714.35 96.1195 709.14 94.7715 703.727 94.0526C698.313 93.3336 691.682 92.6146 685.592 91.8957C674.165 90.3434 663.119 87.7422 652.773 84.1671C643.87 81.3359 634.26 79.6148 624.42 79.0896C618.804 78.6852 613.458 77.6967 607.909 77.2024C602.549 76.9325 597.165 76.9325 591.804 77.2024C583.696 77.2758 575.904 79.3038 569.88 82.909C560.88 87.4023 547.753 87.7618 536.723 88.1213C525.821 88.2299 514.933 87.5671 504.243 86.1442C493.988 85.2834 483.633 85.0728 473.318 85.5152C468.514 85.5152 463.507 85.5151 458.77 86.0094C453.076 86.9034 447.283 87.4895 441.447 87.7619C436.926 87.5224 432.376 87.6733 427.913 88.2111C423.029 89.1101 418.292 90.3293 413.771 91.8507C408.561 93.3785 403.283 94.2772 397.937 95.5353C393.599 96.7599 389.055 97.6349 384.403 98.1415C379.396 98.4111 374.659 99.7142 369.719 99.8939C364.293 99.9851 358.905 100.529 353.682 101.512C343.239 103.775 333.023 106.476 323.096 109.6C317.751 111.172 312.405 112.341 306.924 113.554C301.443 114.767 295.285 115.171 290.007 116.699C285.811 117.957 282.225 119.889 278.097 121.192C272.77 122.563 267.197 123.47 261.519 123.888C237.97 126.54 214.152 122.855 190.333 124.877C185.47 125.458 180.676 126.269 175.987 127.303C171.204 127.876 166.514 128.749 161.98 129.91C156.431 131.527 151.491 133.819 145.875 135.347C140.517 136.817 135.025 138.063 129.432 139.076C118.808 141.008 109.47 144.648 99.0488 147.029C88.628 149.411 78.7486 149.995 68.6661 152.466C62.9453 153.948 56.9659 154.944 50.8695 155.432C46.8764 155.623 42.9012 155.953 38.9601 156.421C33.3219 157.421 28.034 159.146 23.3965 161.498C23.3965 160.959 22.449 160.509 21.84 161.004C19.0657 163.25 15.0734 164.823 12.6373 167.294C10.5807 170.47 10.3638 174.039 12.0283 177.315C14.3305 182.046 15.8728 186.926 16.6297 191.873C16.968 197.625 16.6297 203.376 16.6297 209.128C15.953 232.179 17.171 255.23 16.6297 278.281C16.6297 289.2 13.923 299.984 13.923 310.947V395.962C13.923 401.219 14.5997 406.521 13.923 411.734C13.5847 415.104 12.096 418.294 11.3516 421.664C10.8103 424.091 10.8779 426.517 10.6749 428.988C10.3384 435.786 9.11598 442.551 7.02101 449.208C4.65264 456.353 -3.46753 464.98 1.67521 472.304C1.76625 472.394 1.88651 472.469 2.02709 472.523C2.16768 472.578 2.32494 472.611 2.48719 472.619C6.45911 472.458 10.334 471.738 13.8553 470.507C18.9304 469.294 24.6821 468.8 29.8925 467.856C40.9973 466.228 52.4377 465.863 63.7263 466.778C75.9937 467.684 88.3299 468.12 100.673 468.081C112.881 467.713 125.113 467.909 137.281 468.665C160.626 470.507 183.227 475.45 206.843 475.225C218.468 474.686 230.135 474.686 241.76 475.225C253.872 476.169 265.714 477.876 277.894 478.415C302.187 479.494 326.344 476.708 350.705 477.067C375.065 477.427 400.17 479.314 425.139 478.955C436.981 478.955 448.823 478.955 460.597 478.326C472.371 477.697 485.093 476.978 497.408 476.708C521.125 476.244 544.769 474.743 568.188 472.215C580.801 470.398 593.569 469.092 606.421 468.305C618.736 467.946 631.119 468.305 643.435 468.305C668.404 468.036 693.103 465.834 717.869 463.812C742.636 461.79 767.605 460.307 792.304 459.723C804.957 459.453 817.273 458.69 829.859 457.971C841.363 457.342 852.934 457.971 864.437 457.072C875.941 456.173 888.933 454.825 901.451 454.466C913.97 454.106 924.932 454.466 936.706 454.196C961.568 453.896 986.432 454.677 1011.14 456.533C1035.82 458.624 1060.69 459.57 1085.57 459.364C1097.83 459.235 1110.09 459.67 1122.25 460.667C1128.02 461.191 1133.82 461.491 1139.64 461.565C1143.56 461.875 1147.52 461.439 1151.08 460.307C1155.68 458.24 1154.53 454.151 1154.53 450.961C1154.83 448.08 1155.39 445.214 1156.22 442.379C1156.92 438.532 1157.28 434.661 1157.3 430.786C1157.3 414.879 1162.58 399.332 1162.58 383.381C1162.92 375.293 1163.12 367.204 1162.92 358.982Z" fill="#E13A4B"/>
<path d="M578.197 10.7489H574.5H570.803C553.717 10.7489 511.686 9.64964 495 0C495 0 504.992 16.612 520.479 22.414L523.443 26.4754H541.195V38.0183H520.479L523.443 42.0797H541.195V95H548.588V42.0797H600.412V95H607.805V42.0797H625.557L628.521 38.0183H607.805V26.4754H625.557L628.521 22.414C643.908 16.612 654 0 654 0C637.347 9.64964 595.283 10.7184 578.197 10.7489ZM570.736 38.0183H548.522V26.4754H570.736V38.0183ZM600.345 38.0183H578.13V26.4754H600.345V38.0183Z" fill="#E13A4B"/>
<path d="M628.521 240.649L625.557 236.569H607.805V225.089H628.521L625.557 221.008H607.805V77.5C605.707 77.165 603.642 77.2436 601.544 77C601.178 77 600.778 77 600.412 77V221.039H548.588V87.573C546.134 87.3146 543.665 87.9851 541.195 88V221.039H523.443L520.479 225.119H541.195V236.599H523.443L520.479 240.68C505.092 246.465 495 263 495 263C511.653 253.378 553.717 252.312 570.803 252.281H578.197C595.283 252.281 637.314 253.378 654 263C654 262.97 644.008 246.435 628.521 240.649ZM570.736 236.569H548.522V225.089H570.736V236.569ZM600.345 236.569H578.13V225.089H600.345V236.569Z" fill="#202147"/>
</svg>
