<svg width="378" height="378" viewBox="0 0 378 378" fill="none" xmlns="http://www.w3.org/2000/svg">
<circle cx="189" cy="189" r="189" fill="#E13A4B"/>
<path d="M166.092 233.179V232.939C166.092 232.939 165.803 232.939 166.092 233.179Z" fill="#202147"/>
<path d="M182.52 275.836C182.438 275.568 182.325 275.31 182.184 275.067C181.954 274.71 181.641 274.413 181.271 274.203L180.166 273.674C179.45 273.38 178.759 273.027 178.101 272.617L177.765 272.281C177.471 272.008 177.085 271.856 176.684 271.856C176.283 271.856 175.896 272.008 175.603 272.281C175.318 272.569 175.159 272.957 175.159 273.362C175.159 273.767 175.318 274.155 175.603 274.443C176.618 275.378 177.834 276.068 179.158 276.46H178.773L179.734 276.941C179.98 277.103 180.237 277.247 180.503 277.373C180.662 277.352 180.824 277.352 180.983 277.373C181.196 277.432 181.421 277.434 181.635 277.377C181.849 277.321 182.043 277.209 182.2 277.053C182.356 276.896 182.468 276.701 182.525 276.488C182.581 276.274 182.579 276.049 182.52 275.836Z" fill="white"/>
<path d="M242.375 238.799C242.325 238.674 242.239 238.567 242.128 238.492C242.016 238.417 241.885 238.376 241.751 238.376C241.616 238.376 241.485 238.417 241.373 238.492C241.262 238.567 241.176 238.674 241.126 238.799V239.039C240.979 239.269 240.851 239.51 240.742 239.76V240.048L240.358 240.625L239.877 241.153L238.868 242.066C238.765 242.16 238.682 242.275 238.626 242.404C238.569 242.532 238.54 242.67 238.54 242.81C238.54 242.95 238.569 243.089 238.626 243.217C238.682 243.345 238.765 243.46 238.868 243.555C239.064 243.737 239.321 243.839 239.589 243.839C239.856 243.839 240.114 243.737 240.309 243.555C241.136 242.889 241.849 242.094 242.423 241.201C242.711 240.746 242.952 240.263 243.144 239.76C242.943 239.399 242.683 239.074 242.375 238.799Z" fill="white"/>
<path d="M252.607 214.3C252.241 214.613 251.933 214.987 251.694 215.405L250.974 216.558C250.726 216.992 250.548 217.462 250.445 217.951C250.303 218.437 250.207 218.936 250.157 219.44C250.163 219.657 250.243 219.865 250.382 220.03C250.522 220.196 250.714 220.31 250.926 220.353C251.146 220.374 251.366 220.318 251.549 220.196C251.733 220.073 251.869 219.891 251.934 219.68C252.019 219.267 252.147 218.865 252.319 218.479C252.319 218.095 252.319 218.479 252.319 218.479V217.999C252.298 217.791 252.298 217.582 252.319 217.375C252.425 216.983 252.553 216.598 252.703 216.222C252.904 215.817 253.018 215.376 253.039 214.925C253.055 214.786 253.02 214.646 252.941 214.531C252.861 214.416 252.742 214.334 252.607 214.3Z" fill="white"/>
<path d="M251.454 177.215C251.356 177.145 251.238 177.107 251.118 177.107C250.997 177.107 250.879 177.145 250.781 177.215C250.493 177.455 250.157 177.648 249.917 177.888L249.196 178.608L247.755 180.001C247.672 180.063 247.604 180.142 247.555 180.233C247.505 180.324 247.476 180.424 247.468 180.527C247.461 180.63 247.476 180.733 247.512 180.83C247.548 180.927 247.605 181.014 247.678 181.087C247.751 181.16 247.839 181.217 247.935 181.253C248.032 181.289 248.135 181.304 248.238 181.297C248.341 181.289 248.442 181.26 248.532 181.211C248.623 181.161 248.702 181.093 248.764 181.01L250.157 179.569L250.829 178.849C251.095 178.583 251.336 178.293 251.55 177.984C251.632 177.867 251.668 177.723 251.65 177.581C251.633 177.439 251.563 177.309 251.454 177.215Z" fill="white"/>
<path d="M245.113 210.457C244.981 210.339 244.81 210.274 244.632 210.274C244.455 210.274 244.284 210.339 244.152 210.457C243.811 210.687 243.49 210.944 243.191 211.226C242.908 211.564 242.666 211.935 242.471 212.331C242.023 213.086 241.79 213.95 241.798 214.829C241.792 214.946 241.81 215.064 241.85 215.174C241.891 215.285 241.953 215.386 242.034 215.471C242.115 215.557 242.212 215.625 242.321 215.671C242.429 215.718 242.545 215.741 242.663 215.741C242.785 215.748 242.907 215.729 243.02 215.686C243.134 215.643 243.238 215.576 243.324 215.489C243.41 215.403 243.477 215.3 243.521 215.186C243.564 215.072 243.583 214.95 243.576 214.829C243.552 214.685 243.552 214.539 243.576 214.396C243.557 214.237 243.557 214.075 243.576 213.916C243.576 213.916 243.576 213.916 243.576 213.676L244.152 212.763L244.44 212.379C244.695 212.468 244.975 212.452 245.218 212.335C245.462 212.218 245.648 212.009 245.738 211.754C245.827 211.499 245.811 211.22 245.694 210.976C245.577 210.733 245.368 210.546 245.113 210.457Z" fill="white"/>
<path d="M254 207.767H252.943H250.109C249.918 207.767 249.734 207.843 249.599 207.978C249.464 208.113 249.389 208.297 249.389 208.488C249.389 208.679 249.464 208.862 249.599 208.997C249.734 209.132 249.918 209.208 250.109 209.208H252.943H254C254 209.208 254.384 208.92 254.384 208.728C254.456 208.648 254.505 208.549 254.524 208.443C254.543 208.337 254.531 208.228 254.491 208.128C254.451 208.028 254.384 207.941 254.297 207.877C254.21 207.813 254.107 207.775 254 207.767Z" fill="white"/>
<path d="M242.375 202.051C241.03 202.387 240.694 203.924 240.55 205.125C240.55 205.365 240.55 205.605 240.55 205.894C240.573 206.004 240.573 206.119 240.55 206.23C240.55 205.99 240.55 206.23 240.55 206.23C240.577 206.356 240.577 206.488 240.55 206.614C240.563 206.71 240.563 206.807 240.55 206.902C240.402 207.115 240.335 207.373 240.358 207.63C240.381 207.888 240.494 208.129 240.677 208.312C240.86 208.495 241.101 208.608 241.359 208.631C241.616 208.655 241.874 208.587 242.087 208.44C242.516 207.927 242.813 207.317 242.951 206.662C243.025 206.088 243.025 205.507 242.951 204.933C242.928 204.693 242.928 204.452 242.951 204.212V203.684C242.93 203.557 242.93 203.427 242.951 203.3V202.915C242.972 202.82 242.974 202.723 242.956 202.627C242.938 202.532 242.901 202.441 242.847 202.36C242.794 202.279 242.724 202.21 242.643 202.157C242.562 202.104 242.471 202.068 242.375 202.051Z" fill="white"/>
<path d="M167.437 168.521C167.456 168.313 167.456 168.104 167.437 167.896C167.341 167.734 167.197 167.605 167.025 167.527C166.853 167.45 166.661 167.428 166.476 167.464C166.285 167.516 166.117 167.628 165.995 167.784C165.874 167.94 165.807 168.131 165.803 168.328V168.665C165.78 168.808 165.78 168.954 165.803 169.097C165.826 169.24 165.826 169.386 165.803 169.529V169.914C165.803 169.577 165.803 169.914 165.803 169.914L165.371 170.826C165.275 171.09 165.275 171.379 165.371 171.643C165.475 171.915 165.659 172.15 165.899 172.315C166.163 172.411 166.452 172.411 166.716 172.315C166.997 172.228 167.237 172.04 167.389 171.787C167.71 171.103 167.983 170.396 168.205 169.673C168.251 169.291 168.251 168.903 168.205 168.521C167.954 168.448 167.688 168.448 167.437 168.521Z" fill="white"/>
<path d="M177.14 172.652L176.804 172.123V171.787C176.721 171.549 176.608 171.323 176.468 171.115V170.826C176.13 169.845 175.589 168.945 174.883 168.184C174.73 168.032 174.522 167.946 174.306 167.946C174.09 167.946 173.883 168.032 173.73 168.184C173.574 168.345 173.487 168.561 173.487 168.785C173.487 169.009 173.574 169.224 173.73 169.385C173.747 169.464 173.747 169.546 173.73 169.625C173.885 169.815 174.014 170.025 174.114 170.25C174.354 170.642 174.547 171.062 174.69 171.499C174.866 171.955 175.092 172.39 175.363 172.796C175.654 173.177 176.013 173.503 176.42 173.757C176.566 173.852 176.745 173.886 176.916 173.85C177.087 173.814 177.237 173.711 177.333 173.565C177.428 173.418 177.462 173.24 177.426 173.068C177.389 172.897 177.287 172.747 177.14 172.652Z" fill="white"/>
<path d="M170.319 157.616C170.292 157.585 170.259 157.561 170.221 157.544C170.184 157.527 170.144 157.519 170.103 157.519C170.062 157.519 170.021 157.527 169.984 157.544C169.947 157.561 169.914 157.585 169.887 157.616C169.559 157.992 169.206 158.345 168.83 158.673C168.793 158.694 168.752 158.705 168.71 158.705C168.667 158.705 168.626 158.694 168.59 158.673C168.416 158.716 168.235 158.716 168.061 158.673C167.881 158.728 167.727 158.848 167.629 159.009C167.578 159.104 167.547 159.207 167.537 159.314C167.526 159.421 167.537 159.529 167.568 159.631C167.599 159.734 167.651 159.829 167.719 159.912C167.787 159.995 167.871 160.064 167.965 160.114C168.071 160.162 168.186 160.186 168.302 160.186C168.417 160.186 168.532 160.162 168.638 160.114C169.118 159.884 169.519 159.516 169.791 159.057C170.031 158.673 170.175 158.193 170.415 157.76C170.395 157.705 170.362 157.656 170.319 157.616Z" fill="white"/>
<path d="M178.341 151.852V151.083C178.365 150.924 178.365 150.762 178.341 150.603C178.304 150.474 178.229 150.36 178.126 150.275C178.023 150.189 177.898 150.136 177.765 150.122C177.627 150.12 177.493 150.168 177.388 150.256C177.282 150.344 177.211 150.467 177.188 150.603C177.188 150.603 177.188 150.939 177.188 151.083V151.852V153.437C177.105 153.637 177.105 153.861 177.188 154.061C177.377 154.225 177.612 154.326 177.861 154.35C178.093 154.316 178.31 154.216 178.485 154.061C178.573 153.984 178.64 153.887 178.682 153.779C178.724 153.67 178.739 153.553 178.725 153.437L178.341 151.852Z" fill="white"/>
<path d="M201.543 160.162C201.341 159.998 201.114 159.869 200.871 159.778H200.582C200.213 159.582 199.86 159.357 199.526 159.105C198.756 158.495 197.849 158.083 196.884 157.904C196.513 157.76 196.101 157.76 195.731 157.904C195.557 157.996 195.406 158.125 195.289 158.283C195.173 158.441 195.094 158.624 195.058 158.817C194.976 158.998 194.933 159.195 194.933 159.393C194.933 159.592 194.976 159.789 195.058 159.97C195.251 160.296 195.56 160.536 195.923 160.642C196.616 160.776 197.293 160.985 197.94 161.267H197.604C198.159 161.556 198.737 161.797 199.333 161.987H200.054C200.356 162.035 200.664 162.035 200.967 161.987L201.495 161.747C201.618 161.657 201.719 161.539 201.789 161.404C201.86 161.269 201.899 161.119 201.904 160.966C201.909 160.814 201.879 160.662 201.816 160.523C201.754 160.383 201.66 160.26 201.543 160.162Z" fill="white"/>
<path d="M201.303 177.119C200.926 176.726 200.525 176.357 200.102 176.014C199.759 175.735 199.438 175.43 199.141 175.102C199.012 174.92 198.899 174.727 198.805 174.525V174.141C198.778 173.821 198.778 173.5 198.805 173.18C198.772 173.056 198.714 172.94 198.636 172.839C198.557 172.738 198.458 172.653 198.347 172.591C198.235 172.528 198.111 172.488 197.984 172.474C197.856 172.46 197.727 172.471 197.604 172.508C197.352 172.576 197.136 172.739 197.002 172.963C196.867 173.187 196.825 173.454 196.884 173.709C197.115 174.89 197.662 175.986 198.469 176.879C199.314 177.57 200.232 178.166 201.207 178.656C201.411 178.669 201.611 178.6 201.765 178.465C201.918 178.33 202.011 178.14 202.024 177.936C202.036 177.732 201.967 177.531 201.832 177.378C201.697 177.225 201.507 177.132 201.303 177.119Z" fill="white"/>
<path d="M201.543 147.096C201.565 146.99 201.562 146.881 201.536 146.776C201.509 146.671 201.46 146.573 201.391 146.49C201.321 146.407 201.235 146.341 201.136 146.296C201.038 146.251 200.931 146.229 200.822 146.231C200.62 146.162 200.4 146.162 200.198 146.231L199.814 146.567C199.617 146.726 199.454 146.922 199.333 147.144C199.183 147.365 199.07 147.608 198.997 147.864C198.97 148.136 198.97 148.41 198.997 148.681C198.975 148.824 198.975 148.97 198.997 149.113C198.975 149.224 198.975 149.339 198.997 149.45C199.202 149.654 199.476 149.774 199.766 149.786C199.911 149.792 200.055 149.764 200.189 149.706C200.322 149.648 200.44 149.56 200.534 149.45C200.739 149.245 200.859 148.97 200.871 148.681C200.847 148.522 200.847 148.36 200.871 148.201C200.871 148.201 200.871 148.201 200.871 147.912L201.111 147.528C201.276 147.392 201.394 147.207 201.447 147L201.543 147.096Z" fill="white"/>
<path d="M207.5 167.8L207.068 167.56L206.251 167.031C205.59 166.614 204.823 166.397 204.041 166.407C203.881 166.397 203.72 166.424 203.571 166.485C203.423 166.546 203.29 166.641 203.184 166.761C203.077 166.882 202.999 167.025 202.956 167.18C202.914 167.335 202.907 167.498 202.936 167.656C202.951 167.816 203.002 167.972 203.083 168.111C203.165 168.25 203.276 168.369 203.409 168.461C203.542 168.552 203.693 168.614 203.852 168.641C204.011 168.668 204.174 168.659 204.329 168.617H204.762H205.194H205.963C206.517 168.82 207.101 168.934 207.692 168.953C207.845 168.927 207.981 168.842 208.072 168.716C208.162 168.59 208.198 168.433 208.172 168.28C208.147 168.127 208.062 167.991 207.935 167.901C207.809 167.811 207.653 167.774 207.5 167.8Z" fill="white"/>
<path d="M211.054 154.638L207.356 154.302C207.225 154.301 207.097 154.328 206.977 154.379C206.857 154.43 206.749 154.505 206.659 154.6C206.569 154.694 206.499 154.806 206.454 154.928C206.409 155.05 206.388 155.18 206.395 155.31C206.395 155.565 206.496 155.809 206.676 155.99C206.857 156.17 207.101 156.271 207.356 156.271L211.054 155.983C211.439 155.983 211.775 155.695 211.727 155.31C211.734 155.22 211.722 155.13 211.691 155.045C211.659 154.96 211.61 154.883 211.546 154.819C211.482 154.755 211.405 154.705 211.32 154.674C211.236 154.643 211.145 154.631 211.054 154.638Z" fill="white"/>
<path d="M131.889 191.626C131.699 191.693 131.52 191.791 131.361 191.915L130.928 192.251L130.16 192.924L129.679 193.26V193.5L129.343 193.788L128.863 194.028H128.574C128.234 194.04 127.911 194.181 127.671 194.421C127.43 194.662 127.289 194.985 127.277 195.325C127.29 195.661 127.432 195.979 127.674 196.212C127.916 196.445 128.239 196.575 128.574 196.574C129.136 196.562 129.689 196.436 130.201 196.205C130.712 195.974 131.172 195.642 131.553 195.229C131.94 194.869 132.264 194.447 132.514 193.98L132.85 193.452C132.895 193.23 132.895 193.001 132.85 192.779C132.903 192.637 132.917 192.482 132.892 192.332C132.866 192.182 132.801 192.041 132.704 191.924C132.606 191.807 132.479 191.718 132.336 191.666C132.193 191.614 132.039 191.6 131.889 191.626Z" fill="white"/>
<path d="M151.344 188.936C150.617 189.207 149.948 189.615 149.375 190.137L148.558 190.666L147.981 191.194L147.213 191.723H146.733H146.252H145.916C145.453 191.771 144.986 191.771 144.523 191.723C144.174 191.722 143.839 191.857 143.588 192.099C143.337 192.341 143.19 192.671 143.178 193.02C143.19 193.373 143.335 193.708 143.585 193.957C143.835 194.207 144.17 194.353 144.523 194.365C146.205 194.585 147.91 194.193 149.327 193.26C149.965 192.821 150.532 192.286 151.008 191.675L151.728 190.81C152.052 190.483 152.327 190.111 152.545 189.705C152.554 189.56 152.523 189.415 152.458 189.286C152.392 189.156 152.292 189.047 152.17 188.968C152.048 188.89 151.907 188.846 151.762 188.84C151.616 188.835 151.472 188.868 151.344 188.936Z" fill="white"/>
<path d="M313.422 246.773H313.134C312.494 246.997 311.894 247.322 311.356 247.734C310.324 248.638 309.361 249.618 308.474 250.664C308.312 250.842 308.222 251.073 308.222 251.313C308.222 251.553 308.312 251.784 308.474 251.961C308.656 252.114 308.886 252.198 309.123 252.198C309.36 252.198 309.59 252.114 309.771 251.961L311.212 250.424L311.981 249.704C312.081 249.58 312.193 249.467 312.317 249.367H312.702L313.422 249.079C313.782 248.964 314.111 248.767 314.383 248.503C314.634 248.193 314.814 247.832 314.911 247.446C315 247.248 315.008 247.024 314.931 246.821C314.854 246.618 314.7 246.454 314.503 246.365C314.306 246.276 314.081 246.269 313.878 246.345C313.675 246.422 313.511 246.576 313.422 246.773Z" fill="white"/>
<path d="M333.646 205.317C332.998 205.058 332.385 204.719 331.82 204.308C331.213 203.871 330.551 203.516 329.851 203.252C328.293 202.706 326.683 202.32 325.047 202.099C324.946 202.07 324.84 202.062 324.736 202.076C324.632 202.09 324.532 202.125 324.442 202.179C324.352 202.233 324.274 202.305 324.213 202.39C324.152 202.476 324.109 202.573 324.086 202.675C324.05 202.773 324.034 202.877 324.042 202.981C324.049 203.085 324.079 203.186 324.129 203.277C324.179 203.369 324.249 203.448 324.332 203.51C324.416 203.572 324.513 203.615 324.615 203.636C326.249 203.815 327.86 204.169 329.419 204.693C330.043 204.693 330.619 205.317 331.244 205.605C331.905 205.963 332.658 206.114 333.406 206.038C333.646 205.99 333.646 205.653 333.646 205.317Z" fill="white"/>
<path d="M334.366 186.438C334.216 186.3 334.018 186.223 333.814 186.223C333.609 186.223 333.412 186.3 333.261 186.438L332.253 187.255C331.91 187.535 331.589 187.84 331.292 188.168L329.37 190.041C329.194 190.221 329.096 190.462 329.096 190.714C329.096 190.965 329.194 191.207 329.37 191.386C329.46 191.481 329.568 191.556 329.688 191.607C329.808 191.659 329.937 191.685 330.067 191.685C330.197 191.685 330.326 191.659 330.446 191.607C330.566 191.556 330.674 191.481 330.764 191.386L332.589 189.513C332.928 189.246 333.234 188.939 333.501 188.6L334.366 187.543C334.505 187.393 334.582 187.196 334.582 186.991C334.582 186.786 334.505 186.589 334.366 186.438Z" fill="white"/>
<path d="M293.198 183.556C293.163 183.344 293.05 183.153 292.881 183.02C292.713 182.886 292.5 182.821 292.286 182.836C292.068 182.829 291.853 182.896 291.679 183.027C291.504 183.158 291.379 183.345 291.325 183.556C291.298 183.764 291.298 183.973 291.325 184.181V183.893C291.341 184.036 291.341 184.181 291.325 184.325L290.749 184.853C290.014 185.358 289.243 185.807 288.443 186.198C288.194 186.357 288.016 186.605 287.945 186.89C287.873 187.176 287.914 187.479 288.058 187.736C288.209 187.992 288.454 188.18 288.74 188.261C289.027 188.341 289.333 188.308 289.596 188.168C290.268 187.832 290.941 187.495 291.565 187.111C292.377 186.652 293.056 185.99 293.535 185.19C293.698 184.842 293.796 184.468 293.823 184.085C293.642 183.878 293.432 183.7 293.198 183.556Z" fill="white"/>
<path d="M238.676 164.966L236.418 164.581C235.572 164.486 234.718 164.486 233.872 164.581C233.541 164.581 233.223 164.713 232.989 164.947C232.755 165.182 232.623 165.499 232.623 165.831C232.623 166.162 232.755 166.479 232.989 166.714C233.223 166.948 233.541 167.079 233.872 167.079C234.72 167.127 235.57 167.127 236.418 167.079L238.676 166.647C238.899 166.647 239.113 166.559 239.271 166.401C239.428 166.243 239.517 166.029 239.517 165.806C239.517 165.584 239.428 165.37 239.271 165.212C239.113 165.054 238.899 164.966 238.676 164.966Z" fill="white"/>
<path d="M84.4763 174.813C84.4775 174.677 84.4426 174.543 84.3751 174.425C84.3076 174.307 84.2097 174.209 84.0919 174.141C83.8765 173.994 83.6315 173.897 83.3741 173.855C83.1168 173.813 82.8534 173.829 82.6027 173.901C82.2334 174.02 81.879 174.182 81.546 174.381C80.9047 174.854 80.3378 175.421 79.8646 176.062C79.7928 176.204 79.7555 176.36 79.7555 176.519C79.7555 176.677 79.7928 176.834 79.8646 176.975C79.9003 177.124 79.9656 177.265 80.0563 177.389C80.147 177.512 80.2616 177.617 80.3932 177.696C80.6865 177.811 81.0123 177.811 81.3056 177.696C81.6106 177.603 81.8685 177.396 82.0263 177.119C82.2453 176.828 82.5042 176.57 82.7951 176.351L83.3715 175.966L83.6597 175.726C83.7779 175.736 83.8967 175.718 84.0068 175.674C84.117 175.63 84.2154 175.561 84.2945 175.473C84.3736 175.384 84.4312 175.279 84.4628 175.164C84.4943 175.05 84.4989 174.93 84.4763 174.813Z" fill="white"/>
<path d="M90.8654 152.332C90.8022 152.222 90.7111 152.131 90.6015 152.068C90.4919 152.004 90.3675 151.971 90.2409 151.971C90.1142 151.971 89.9899 152.004 89.8802 152.068C89.7706 152.131 89.6795 152.222 89.6164 152.332C89.6026 152.428 89.6026 152.525 89.6164 152.62C89.0086 152.828 88.4401 153.136 87.9349 153.533C86.8151 154.393 85.8279 155.412 85.0047 156.559C84.9278 156.691 84.8779 156.838 84.8581 156.989C84.8382 157.141 84.8486 157.295 84.8888 157.442C84.9291 157.59 84.9982 157.728 85.0923 157.849C85.1864 157.969 85.3038 158.07 85.4371 158.144C85.7018 158.273 86.0046 158.3 86.288 158.221C86.5714 158.141 86.8157 157.96 86.9744 157.712L87.3104 157.28L87.983 156.559C88.4857 156.152 88.9666 155.719 89.424 155.262C89.5397 155.122 89.6685 154.994 89.8084 154.878L90.2409 154.59C90.4958 154.414 90.709 154.184 90.8654 153.917C90.8932 153.758 90.8932 153.596 90.8654 153.437C90.9795 153.077 90.9795 152.691 90.8654 152.332Z" fill="white"/>
<path d="M115.508 168.569L114.836 168.28H114.547C114.067 167.896 113.635 167.464 113.154 167.127C112.674 166.791 110.656 165.83 109.504 165.062C109.291 164.952 109.045 164.926 108.814 164.988C108.583 165.051 108.384 165.197 108.255 165.398C108.145 165.611 108.119 165.857 108.181 166.088C108.243 166.319 108.389 166.518 108.591 166.647C109.84 167.416 111.233 167.848 112.386 168.665L112.962 169.145L113.731 169.722C114.262 170.103 114.902 170.305 115.556 170.298C116.084 169.914 116.325 168.761 115.508 168.569Z" fill="white"/>
<path d="M123.675 249.56C123.231 249.535 122.788 249.613 122.38 249.788C121.971 249.963 121.609 250.23 121.321 250.568C121.278 250.726 121.278 250.891 121.321 251.049C121.327 251.159 121.356 251.267 121.406 251.367C121.455 251.466 121.524 251.554 121.609 251.625C121.752 251.76 121.941 251.836 122.137 251.836C122.334 251.836 122.523 251.76 122.666 251.625L123.002 251.289H123.338H123.771C123.898 251.315 124.028 251.315 124.155 251.289C124.199 251.165 124.199 251.029 124.155 250.905C124.334 250.841 124.479 250.709 124.56 250.538C124.641 250.367 124.651 250.17 124.587 249.992C124.524 249.813 124.392 249.668 124.221 249.587C124.049 249.506 123.853 249.496 123.675 249.56Z" fill="white"/>
<path d="M158.069 219.776H157.301H156.917L156.58 219.536H156.34L155.523 219.008C154.986 218.659 154.404 218.385 153.794 218.191C153.054 217.998 152.277 217.998 151.536 218.191C151.28 218.269 151.064 218.442 150.93 218.674C150.796 218.906 150.755 219.179 150.816 219.44C150.894 219.696 151.067 219.913 151.298 220.047C151.53 220.18 151.804 220.221 152.065 220.161H152.737H153.506H153.842L154.611 220.641C155.132 220.995 155.728 221.227 156.352 221.318C156.975 221.41 157.612 221.359 158.213 221.169C158.348 221.118 158.462 221.025 158.54 220.904C158.618 220.783 158.655 220.641 158.646 220.497C158.668 220.41 158.67 220.32 158.651 220.232C158.633 220.144 158.594 220.062 158.538 219.992C158.482 219.922 158.41 219.867 158.329 219.829C158.248 219.792 158.159 219.774 158.069 219.776Z" fill="white"/>
<path d="M179.014 207.623C178.805 207.407 178.538 207.257 178.245 207.191H177.717C177.35 207.143 176.978 207.143 176.612 207.191C176.133 207.284 175.666 207.429 175.219 207.623L174.546 207.911H174.21C173.788 208.126 173.355 208.318 172.913 208.488C172.788 208.537 172.681 208.624 172.606 208.735C172.53 208.846 172.49 208.978 172.49 209.112C172.49 209.247 172.53 209.378 172.606 209.489C172.681 209.601 172.788 209.687 172.913 209.737L174.21 210.025C174.704 210.095 175.205 210.095 175.699 210.025H176.948H177.524H177.813H178.149H178.581C178.73 209.989 178.871 209.924 178.995 209.833C179.119 209.742 179.223 209.628 179.302 209.496C179.55 209.458 179.773 209.323 179.922 209.12C180.071 208.917 180.133 208.664 180.094 208.416C180.056 208.167 179.921 207.944 179.718 207.795C179.515 207.647 179.262 207.585 179.014 207.623Z" fill="white"/>
<path d="M191.215 198.64C191.185 198.556 191.134 198.481 191.066 198.422C190.999 198.364 190.918 198.323 190.831 198.304H189.006C188.886 198.3 188.768 198.324 188.659 198.374C188.551 198.424 188.456 198.499 188.381 198.592C188.232 198.747 188.146 198.953 188.141 199.168C188.139 199.399 188.225 199.623 188.381 199.793C188.584 199.859 188.803 199.859 189.006 199.793H190.399H190.831C190.964 199.724 191.079 199.626 191.167 199.505C191.205 199.439 191.225 199.364 191.225 199.288C191.225 199.213 191.205 199.138 191.167 199.072C191.209 199.009 191.235 198.937 191.243 198.862C191.251 198.787 191.242 198.711 191.215 198.64Z" fill="white"/>
<path d="M202.84 222.851C202.708 222.473 202.495 222.129 202.216 221.842L201.447 221.266C201.054 220.945 200.636 220.656 200.198 220.401L198.949 219.584L198.661 219.344L198.036 218.816C197.834 218.645 197.575 218.557 197.31 218.568C197.046 218.579 196.795 218.689 196.608 218.877C196.421 219.064 196.311 219.314 196.3 219.579C196.288 219.843 196.377 220.102 196.547 220.305C197.224 221.055 197.963 221.746 198.757 222.37L200.15 223.427H200.438C200.438 223.427 200.87 223.86 201.159 223.908H201.543C201.726 223.953 201.917 223.955 202.1 223.913C202.284 223.872 202.455 223.787 202.6 223.667C202.781 223.436 202.867 223.144 202.84 222.851Z" fill="white"/>
<path d="M205.77 211.658C205.691 211.587 205.589 211.548 205.482 211.548C205.376 211.548 205.273 211.587 205.194 211.658H204.906H204.618H203.945H203.609H202.744C202.578 211.612 202.402 211.631 202.25 211.712C202.098 211.792 201.983 211.928 201.927 212.09C201.906 212.173 201.902 212.258 201.915 212.342C201.927 212.426 201.957 212.506 202.002 212.578C202.047 212.65 202.106 212.712 202.176 212.76C202.246 212.809 202.325 212.842 202.408 212.859C203.021 213.027 203.668 213.027 204.281 212.859L205.05 212.475L205.482 212.09C205.498 211.947 205.498 211.802 205.482 211.658C205.575 211.695 205.678 211.695 205.77 211.658Z" fill="white"/>
<path d="M212.159 203.059H211.775L211.343 202.627C210.766 202.051 210.334 201.426 209.758 200.85C209.685 200.768 209.597 200.702 209.497 200.658C209.398 200.613 209.29 200.589 209.181 200.589C209.072 200.589 208.964 200.613 208.865 200.658C208.765 200.702 208.677 200.768 208.604 200.85C208.452 201.003 208.366 201.21 208.366 201.426C208.366 201.642 208.452 201.85 208.604 202.003C209.229 202.579 209.71 203.252 210.382 203.828C210.71 204.138 211.082 204.397 211.487 204.597L212.207 204.837C212.397 204.884 212.595 204.884 212.784 204.837H213.072C213.308 204.716 213.486 204.506 213.567 204.254C213.648 204.002 213.625 203.727 213.504 203.492C213.383 203.256 213.174 203.078 212.921 202.997C212.669 202.916 212.395 202.938 212.159 203.059Z" fill="white"/>
<path d="M223.545 246.677H223.16C222.987 246.628 222.804 246.628 222.632 246.677H217.828C217.611 246.677 217.404 246.763 217.25 246.917C217.097 247.07 217.011 247.277 217.011 247.494C217.023 247.707 217.113 247.908 217.263 248.059C217.414 248.209 217.615 248.299 217.828 248.311H223.16L223.64 248.07C223.769 248 223.876 247.894 223.946 247.765C224.017 247.636 224.049 247.49 224.039 247.343C224.028 247.196 223.977 247.056 223.889 246.938C223.801 246.82 223.682 246.729 223.545 246.677Z" fill="white"/>
<path d="M230.125 232.939H229.309C228.636 232.939 228.012 232.939 227.339 232.939C227.123 232.939 226.915 233.025 226.762 233.178C226.609 233.331 226.523 233.539 226.523 233.755C226.534 233.968 226.624 234.169 226.774 234.32C226.925 234.471 227.126 234.56 227.339 234.572C228.106 234.644 228.878 234.644 229.645 234.572C230.053 234.511 230.443 234.358 230.784 234.125C231.125 233.892 231.409 233.585 231.615 233.227C231.518 233.131 230.654 232.41 230.125 232.939Z" fill="white"/>
<path d="M240.261 247.926L238.772 246.485C238.457 246.203 238.119 245.946 237.763 245.717L236.755 245.188C235.43 244.476 233.976 244.036 232.479 243.891C231.759 243.891 231.566 245.044 232.479 245.14C233.796 245.421 235.05 245.942 236.178 246.677L237.091 247.302L238.051 247.734C238.676 248.022 239.252 248.359 239.829 248.695C239.922 248.705 240.016 248.687 240.099 248.644C240.183 248.601 240.252 248.534 240.298 248.453C240.344 248.371 240.365 248.278 240.358 248.184C240.352 248.09 240.318 248.001 240.261 247.926Z" fill="white"/>
<path d="M173.345 136.96H172.961C172.772 136.911 172.574 136.911 172.385 136.96H171.376C170.734 137.159 170.166 137.544 169.743 138.065C169.654 138.144 169.583 138.24 169.534 138.347C169.484 138.455 169.457 138.571 169.454 138.689C169.451 138.809 169.475 138.927 169.525 139.036C169.575 139.144 169.649 139.239 169.743 139.314C169.819 139.405 169.915 139.478 170.023 139.528C170.13 139.578 170.248 139.604 170.367 139.604C170.486 139.604 170.603 139.578 170.711 139.528C170.819 139.478 170.915 139.405 170.992 139.314L171.376 138.978L171.712 138.737H172.193H172.625C172.863 138.784 173.107 138.784 173.345 138.737C173.455 138.768 173.572 138.768 173.682 138.737C173.718 138.596 173.718 138.447 173.682 138.305C173.793 138.213 173.877 138.09 173.922 137.953C173.967 137.815 173.972 137.667 173.937 137.527C173.902 137.386 173.828 137.258 173.723 137.158C173.618 137.058 173.487 136.989 173.345 136.96Z" fill="white"/>
<path d="M150.624 120.291C150.095 120.291 149.519 120.291 148.942 120.291H147.405C146.426 120.153 145.472 119.878 144.571 119.474C144.464 119.416 144.346 119.38 144.225 119.368C144.104 119.355 143.982 119.367 143.865 119.403C143.749 119.439 143.641 119.498 143.548 119.576C143.454 119.654 143.377 119.75 143.322 119.859C143.277 119.972 143.256 120.093 143.262 120.215C143.267 120.336 143.298 120.455 143.352 120.564C143.407 120.673 143.483 120.769 143.577 120.846C143.672 120.923 143.781 120.98 143.898 121.012C144.966 121.469 146.102 121.745 147.261 121.828C148.38 121.925 149.505 121.925 150.624 121.828C150.827 121.828 151.023 121.747 151.167 121.603C151.311 121.459 151.392 121.263 151.392 121.06C151.392 120.856 151.311 120.66 151.167 120.516C151.023 120.372 150.827 120.291 150.624 120.291Z" fill="white"/>
<path d="M155.908 111.02L155.571 110.78C155.353 110.71 155.118 110.71 154.899 110.78C154.689 110.969 154.444 111.115 154.178 111.212H153.794H153.218H152.353C152.227 111.208 152.101 111.232 151.985 111.281C151.869 111.331 151.765 111.406 151.68 111.5C151.577 111.576 151.495 111.679 151.445 111.797C151.394 111.915 151.376 112.045 151.392 112.173C151.387 112.306 151.411 112.439 151.46 112.563C151.51 112.687 151.585 112.8 151.68 112.893C151.837 112.941 152.004 112.941 152.161 112.893C152.764 113.01 153.383 113.01 153.986 112.893L154.515 112.653C154.702 112.586 154.868 112.47 154.995 112.317C155.243 112.1 155.469 111.859 155.668 111.596C155.712 111.423 155.712 111.241 155.668 111.068C155.75 111.065 155.831 111.049 155.908 111.02Z" fill="white"/>
<path d="M211.247 121.06H210.862H210.286C209.893 121.027 209.506 120.947 209.133 120.819C208.413 120.552 207.721 120.214 207.068 119.811C205.787 118.938 204.596 117.94 203.513 116.832C203.341 116.66 203.107 116.564 202.864 116.564C202.621 116.564 202.388 116.66 202.216 116.832C202.044 117.004 201.947 117.238 201.947 117.481C201.947 117.724 202.044 117.957 202.216 118.129C203.428 119.424 204.763 120.599 206.203 121.636C206.974 122.166 207.814 122.586 208.701 122.885C209.603 123.196 210.584 123.196 211.487 122.885C211.729 122.853 211.948 122.727 212.097 122.533C212.246 122.339 212.311 122.094 212.279 121.852C212.248 121.61 212.121 121.391 211.927 121.242C211.734 121.093 211.489 121.028 211.247 121.06Z" fill="white"/>
<path d="M50.898 193.932C50.8268 193.833 50.733 193.752 50.6244 193.697C50.5159 193.641 50.3956 193.612 50.2735 193.612C50.1514 193.612 50.0311 193.641 49.9225 193.697C49.8139 193.752 49.7201 193.833 49.649 193.932L49.2165 194.557L48.8324 195.181C48.6516 195.473 48.4424 195.747 48.2079 195.998L47.9197 196.478L47.3433 197.295L47.0551 197.727L46.5264 198.304V198.544C46.2903 198.701 46.1206 198.94 46.0497 199.215C45.9788 199.49 46.0119 199.781 46.1424 200.033C46.292 200.278 46.5311 200.455 46.8091 200.527C47.087 200.599 47.382 200.559 47.6315 200.417C48.4232 199.818 49.1056 199.087 49.649 198.256C49.9852 197.775 50.3216 197.343 50.6098 196.863C50.9242 196.347 51.1818 195.8 51.3783 195.229V194.557C51.2715 194.313 51.1067 194.098 50.898 193.932Z" fill="white"/>
<path d="M45.7581 200.273H45.2776H44.8935C44.8935 200.273 45.1336 200.273 44.8935 200.273L44.5572 199.937C44.5389 199.777 44.5389 199.616 44.5572 199.457C44.5572 199.457 44.5572 199.457 44.5572 199.216C44.5572 199.051 44.4913 198.892 44.3742 198.775C44.2571 198.658 44.0983 198.592 43.9327 198.592C43.767 198.592 43.6082 198.658 43.4911 198.775C43.374 198.892 43.3081 199.051 43.3081 199.216C43.2873 199.311 43.2873 199.41 43.3081 199.505C43.2609 199.71 43.2609 199.924 43.3081 200.129C43.3619 200.384 43.4594 200.628 43.5964 200.85C43.7742 201.241 44.0181 201.598 44.317 201.906C44.6549 202.19 45.0258 202.432 45.4218 202.627H45.9982H46.2864C46.5242 202.675 46.7693 202.675 47.0071 202.627C47.1209 202.58 47.2181 202.5 47.2865 202.397C47.3549 202.294 47.3912 202.174 47.3912 202.051C47.3912 201.927 47.3549 201.807 47.2865 201.704C47.2181 201.602 47.1209 201.522 47.0071 201.474L45.7581 200.273Z" fill="white"/>
<path d="M108.783 190.137C108.292 190.177 107.824 190.361 107.438 190.666C106.945 190.979 106.479 191.333 106.045 191.723C105.228 192.395 104.46 193.164 103.643 193.788C103.569 193.86 103.51 193.946 103.47 194.041C103.43 194.136 103.409 194.238 103.409 194.341C103.409 194.444 103.43 194.546 103.47 194.641C103.51 194.736 103.569 194.821 103.643 194.893C103.791 195.018 103.978 195.087 104.171 195.087C104.365 195.087 104.552 195.018 104.7 194.893L106.861 192.731L107.438 192.203L107.726 191.915C108.062 191.626 108.447 191.434 108.783 191.194C108.923 191.194 109.058 191.138 109.157 191.039C109.256 190.94 109.311 190.806 109.311 190.666C109.311 190.526 109.256 190.391 109.157 190.292C109.058 190.193 108.923 190.137 108.783 190.137Z" fill="white"/>
<path d="M128.431 146.712C127.935 146.395 127.421 146.106 126.893 145.847C126.387 145.574 125.856 145.349 125.308 145.174C124.154 144.909 122.955 144.909 121.801 145.174C121.801 145.174 121.801 145.174 121.801 145.463C122.933 145.61 124.045 145.884 125.116 146.279C126.173 146.567 127.229 147 128.286 147.384C128.527 147.24 128.671 146.856 128.431 146.712Z" fill="white"/>
<path d="M290.748 218.191L289.74 217.759L288.923 217.471H288.491L287.722 217.182C287.208 216.978 286.678 216.818 286.137 216.702H285.08C284.687 216.731 284.299 216.812 283.927 216.942C283.78 216.997 283.653 217.095 283.564 217.224C283.474 217.353 283.426 217.506 283.426 217.663C283.426 217.82 283.474 217.973 283.564 218.102C283.653 218.23 283.78 218.329 283.927 218.383C284.24 218.451 284.545 218.547 284.84 218.672H285.705H286.137L286.857 219.056C287.411 219.361 287.99 219.618 288.587 219.824H289.356C289.796 219.945 290.26 219.945 290.7 219.824C290.855 219.753 290.986 219.641 291.079 219.499C291.173 219.357 291.225 219.192 291.23 219.023C291.235 218.853 291.193 218.685 291.108 218.538C291.023 218.392 290.898 218.271 290.748 218.191Z" fill="white"/>
<path d="M104.412 128.794C103.803 128.62 103.171 128.539 102.538 128.553C102.238 128.482 101.925 128.482 101.625 128.553L101.097 128.89C100.256 129.46 99.4535 130.086 98.6952 130.763C98.6952 130.763 98.6952 130.763 98.6952 130.763C98.6952 130.763 99.7037 130.139 100.232 129.899C100.567 129.703 100.949 129.603 101.337 129.61H101.866C101.918 129.636 101.975 129.649 102.034 129.649C102.092 129.649 102.149 129.636 102.202 129.61H102.586C103.173 129.533 103.751 129.405 104.315 129.226C104.374 129.173 104.415 129.102 104.432 129.025C104.449 128.948 104.442 128.867 104.412 128.794Z" fill="white"/>
</svg>
