<svg width="180" height="178" viewBox="0 0 180 178" fill="none" xmlns="http://www.w3.org/2000/svg">
<path d="M1.332 188.65C2.56279 187.38 3.89349 186.211 5.31131 185.154C6.28519 184.375 7.3049 183.655 8.36491 182.999C9.56223 182.152 10.6771 181.194 11.6948 180.139C13.8778 178.099 15.741 175.742 17.2216 173.147C18.7 170.384 19.985 167.385 21.5602 164.594C22.6796 162.178 24.1204 159.924 25.8434 157.893C27.7778 155.959 29.8918 154.245 31.7847 152.27C33.7661 150.249 35.4001 147.914 36.6207 145.361C37.2839 143.979 38.0024 142.598 38.8453 141.216C39.5387 139.826 40.0851 138.367 40.4757 136.864C40.9455 135.482 41.6777 134.211 42.1752 132.843C42.5773 131.519 42.8958 130.172 43.1285 128.808C43.9805 126.275 45.2103 123.886 46.7762 121.72C48.2062 118.991 49.3722 116.132 50.2582 113.181C50.8791 111.768 51.4279 110.325 51.9024 108.856C52.1629 107.328 52.1111 105.763 51.7504 104.255C51.2881 101.74 51.2043 99.1689 51.5016 96.6284C51.6813 95.2467 51.8609 93.8649 52.0682 92.4832C52.1511 91.8477 52.3168 91.2535 52.4412 90.6318C52.6 89.7663 52.6556 88.8851 52.607 88.0065C52.607 84.9115 52.607 81.8303 52.7452 78.7353C52.9027 77.1784 52.8094 75.6063 52.4689 74.0789C52.2692 73.5292 52.1302 72.9594 52.0544 72.3795C52.0544 71.6195 52.1511 70.8734 52.0544 70.1135C51.8886 66.9079 50.2305 63.8958 48.683 61.1738C47.9612 60.0843 47.4459 58.8712 47.1631 57.5952C46.9144 56.1168 46.6104 54.6384 46.3479 53.16C46.0854 51.6816 45.8919 50.2584 45.6017 48.8352C45.353 47.647 44.7866 46.5692 44.6346 45.3533C44.5241 43.9145 44.4965 42.4706 44.5517 41.0286C44.5517 39.4397 44.5517 37.8507 44.5517 36.2618C44.5697 34.902 44.7131 33.5468 44.9801 32.2134C45.1211 30.9921 45.4472 29.7994 45.9472 28.6762C46.4228 27.5632 47.0506 26.5216 47.8125 25.5812C48.6436 24.6672 49.5246 23.8 50.4515 22.9836C51.0261 22.5219 51.4895 21.937 51.8076 21.2722C52.1257 20.6073 52.2903 19.8795 52.2892 19.1425C52.2965 17.686 52.1577 16.2326 51.8747 14.8039C51.3293 11.9847 51.038 9.12237 51.0043 6.25116C51.0043 4.24769 51.0872 1.53954 53.1874 0.503264C53.9059 0.144021 54.4861 0.503272 55.1494 0.834881C56.5311 1.51192 58.1891 1.27702 59.6813 1.77443C60.9054 2.09203 62.1463 2.34111 63.3981 2.52054C64.7798 2.79688 66.1615 2.90742 67.5432 3.21139C68.9249 3.51537 70.3066 4.13713 71.6883 4.59309C73.07 5.04906 74.4517 5.42213 75.8334 5.90573C77.1228 6.39823 78.3824 6.96569 79.6055 7.60522C80.9891 8.26642 82.4154 8.83419 83.875 9.30471C85.2395 9.83616 86.6569 10.2206 88.103 10.4515C89.4073 10.5896 90.7227 10.5896 92.027 10.4515C94.5123 10.003 97.0512 9.93318 99.5573 10.2443C102.321 10.8108 104.697 12.759 106.991 14.2788C108.234 15.0941 109.464 15.9645 110.777 16.6554C112.089 17.3462 113.278 17.4844 114.424 18.1614C115.571 18.8385 116.552 19.7366 117.713 20.3722C118.873 21.0077 120.117 21.6433 121.305 22.3618C122.694 23.1684 124.174 23.8084 125.713 24.2686C127.095 24.6969 128.38 25.2219 129.748 25.6503C130.511 25.8642 131.293 26.003 132.083 26.0648C132.73 26.0696 133.376 26.1157 134.017 26.2029C134.496 26.3435 134.959 26.5333 135.399 26.7694C136.228 27.1262 137.121 27.3096 138.024 27.3083C140.704 27.4188 143.095 27.3083 145.388 28.8558C145.922 29.2446 146.508 29.5563 147.129 29.7816C147.673 29.9243 148.204 30.109 148.718 30.3342C149.646 30.8479 150.512 31.4644 151.302 32.1719C152.124 32.8948 152.849 33.7216 153.458 34.6313C154.258 35.824 155.365 36.7786 156.663 37.3947C157.893 38.0027 159.123 38.5554 160.297 39.2739C161.471 39.9923 162.715 40.849 163.945 41.6089C166.459 43.1841 168.988 44.773 171.572 46.2238C172.788 46.9147 174.045 47.5226 175.219 48.2549C176.394 48.9872 177.237 50.3827 178.508 50.2031C178.632 50.2031 178.687 50.3828 178.508 50.3966C178.171 50.4456 177.826 50.4108 177.506 50.2951C177.185 50.1794 176.898 49.9864 176.67 49.7333L176.325 49.4294C176.905 50.0926 177.389 50.8111 178.01 51.5019C178.814 52.1796 179.695 52.7594 180.636 53.229C182.542 54.4588 182.487 56.8629 182.432 58.894C182.363 62.0581 182.432 65.2222 182.432 68.3863C182.432 71.5504 182.363 74.8942 182.57 78.155C182.777 81.4158 182.819 84.5937 183.33 87.744C183.565 89.1257 183.827 90.5074 183.966 91.9858C184.104 93.4643 184.035 95.1361 183.966 96.7251C183.966 99.9859 183.966 103.233 183.966 106.494C183.931 108.137 184.014 109.781 184.214 111.413C184.435 112.905 184.726 114.383 184.947 115.862C185.375 118.915 185.306 121.969 185.637 125.022C185.969 128.076 187.019 131.309 187.544 134.487C188.045 137.428 188.327 140.402 188.387 143.385C188.387 149.658 187.945 155.986 188.387 162.245C188.829 168.505 190.197 174.404 189.976 180.553C189.839 184.67 189.007 188.734 187.517 192.574C186.135 195.821 183.883 198.57 180.069 198.101C178.601 197.852 177.12 197.686 175.634 197.603C174.086 197.603 172.553 197.341 171.019 197.161C169.613 196.869 168.192 196.652 166.763 196.512C165.283 196.456 163.8 196.512 162.328 196.678C160.86 196.907 159.378 197.041 157.893 197.078C156.461 197.027 155.035 196.879 153.623 196.636C152.076 196.387 150.528 196.042 148.967 195.931C147.471 195.848 145.972 195.848 144.477 195.931C138.112 196.046 131.748 195.69 125.437 194.867C124.055 194.702 122.59 194.867 121.209 194.619C119.827 194.37 118.252 193.831 116.746 193.527C113.584 192.748 110.312 192.523 107.074 192.864C104.049 193.17 101.007 193.276 97.9683 193.182C94.7865 193.338 91.5982 193.302 88.4208 193.071C85.2709 192.577 82.0982 192.24 78.9147 192.063C75.64 192.063 72.3378 192.325 69.0631 192.063C67.5294 191.911 66.0234 191.676 64.4897 191.607C62.956 191.538 61.4223 191.607 59.8748 191.607C58.3273 191.607 56.7521 191.316 55.1908 191.192C53.6295 191.068 52.0267 191.04 50.4377 191.026C47.2183 191.026 43.999 191.109 40.7658 191.026C37.5326 190.943 34.5205 190.515 31.384 190.266C28.2476 190.018 25.0558 190.004 21.8779 190.018C18.7101 189.955 15.5413 190.066 12.3856 190.349C9.44009 190.75 6.45688 190.791 3.50128 190.474C2.90715 190.391 2.31299 190.294 1.73267 190.156C1.45633 190.087 0.903717 190.073 0.765549 189.797C0.62738 189.52 1.0833 188.899 1.332 188.65Z" fill="#202147"/>
<path d="M152.159 66.7698H151.689H151.399L151.205 66.6178C150.404 65.9407 149.589 65.2361 148.76 64.6419L148.428 64.3932L147.737 63.8682L147.24 63.4537C147.059 63.2778 146.865 63.1161 146.66 62.9701C146.34 62.7552 145.984 62.6007 145.609 62.5141C145.125 62.3529 144.661 62.135 144.228 61.8647C143.405 61.36 142.556 60.8988 141.685 60.483C140.785 60.0885 139.862 59.7471 138.922 59.4605C138.02 59.1587 137.157 58.7505 136.352 58.2446C135.578 57.7887 134.777 57.388 133.976 56.9735C133.139 56.5411 132.37 55.987 131.696 55.3293C131.022 54.7984 130.231 54.4381 129.388 54.2792C128.913 54.1637 128.45 54.0017 128.007 53.7955C127.665 53.6394 127.289 53.5729 126.915 53.6021H126.514H125.782V52.9113V52.179H127.164C127.439 52.1769 127.714 52.2141 127.979 52.2895C128.218 52.3635 128.45 52.4606 128.67 52.5796C128.835 52.6605 129.006 52.7298 129.181 52.7869L129.526 52.8836C130.207 53.0407 130.869 53.2676 131.502 53.5607C132.007 53.826 132.472 54.1609 132.884 54.5555C133.146 54.7991 133.428 55.0208 133.727 55.2187C134.174 55.484 134.635 55.7239 135.109 55.9372C135.482 56.1168 135.855 56.2964 136.214 56.5037L136.863 56.8906C137.482 57.2752 138.128 57.6124 138.798 57.8992C139.212 58.065 139.641 58.2032 140.055 58.3414C140.47 58.4795 141.119 58.6868 141.63 58.9079C142.54 59.2911 143.43 59.7199 144.297 60.1928L144.767 60.4692C145.037 60.64 145.319 60.7923 145.609 60.9251L146.079 61.0772C146.374 61.1515 146.66 61.2533 146.936 61.3811C147.382 61.6224 147.795 61.9195 148.166 62.2654C148.539 62.597 148.939 62.901 149.34 63.2049L149.616 63.426C150.503 64.0668 151.347 64.7637 152.145 65.5124L152.49 65.8993L152.325 66.3276L152.159 66.7698ZM155.502 105.844C155.185 105.499 154.867 105.153 154.535 104.822C154.204 104.49 153.844 104.103 153.499 103.717C153.154 103.33 153.126 103.288 152.919 103.081L152.352 102.514C151.97 102.164 151.614 101.785 151.288 101.381L151.067 101.077C150.796 100.658 150.449 100.293 150.045 99.9997C149.741 99.8201 149.423 99.6543 149.105 99.5023C148.736 99.3232 148.376 99.1249 148.027 98.9082L147.419 98.5351C146.286 97.8166 145.14 97.1534 143.993 96.4211C143.557 96.1703 143.093 95.971 142.611 95.827L141.934 95.5921C141.234 95.3365 140.555 95.027 139.903 94.6664C139.558 94.4757 139.226 94.2634 138.908 94.0308L138.659 93.8373C138.541 93.7216 138.406 93.6238 138.259 93.5472C138.095 93.4895 137.921 93.4659 137.748 93.4781H136.988C136.836 93.4923 136.683 93.4923 136.532 93.4781C136.176 93.4372 135.83 93.3344 135.509 93.1741C135.29 93.0403 135.095 92.8724 134.929 92.6767L134.722 92.4695C134.538 92.3535 134.344 92.2563 134.141 92.1793L133.948 92.1102L133.354 91.8338L132.76 91.5437C132.512 91.463 132.257 91.4029 132 91.3641H131.862C131.567 91.3274 131.289 91.2076 131.06 91.0186C130.737 90.6851 130.513 90.2693 130.411 89.8166V89.6646C130.411 89.6646 130.273 89.333 129.485 88.7803C129.225 88.6252 128.947 88.5044 128.656 88.421C128.274 88.3041 127.908 88.1418 127.564 87.9374C127.219 87.6886 126.932 87.3681 126.722 86.9979C126.628 86.8419 126.522 86.694 126.404 86.5557C125.921 86.0344 125.344 85.608 124.704 85.2984C124.419 85.2023 124.162 85.036 123.958 84.8148C123.212 84.3312 122.452 83.9029 121.692 83.4331L121.14 83.1015C120.026 82.4655 118.951 81.7643 117.92 81.0013C117.484 80.6978 117.022 80.4342 116.538 80.2137C115.988 79.958 115.465 79.6479 114.977 79.288C114.644 79.049 114.293 78.8365 113.927 78.6524L113.471 78.4037L112.241 77.6714L111.564 77.2707C111.118 77.0007 110.657 76.7562 110.183 76.5384C109.489 76.2186 108.819 75.8492 108.179 75.433C107.668 75.0876 107.115 74.7974 106.535 74.4797C105.955 74.1619 105.568 73.9684 105.153 73.6783C104.76 73.4356 104.354 73.2142 103.937 73.0151C103.233 72.7207 102.565 72.3451 101.948 71.8959C101.569 71.6258 101.166 71.39 100.746 71.1912L100.524 71.0807C100.249 70.9362 99.9857 70.7698 99.7369 70.5832C99.509 70.3996 99.2581 70.2464 98.9908 70.1273C98.6192 69.99 98.2263 69.9198 97.8302 69.92H97.2636C96.5448 69.8185 95.8202 69.7631 95.0944 69.7542H91.9026C91.6148 69.7489 91.3274 69.7767 91.046 69.8372C90.2008 70.0128 89.3392 70.0962 88.476 70.0858H87.2878H86.2653C85.4197 70.1086 84.5736 70.0577 83.7368 69.9338L82.507 69.7404C81.6032 69.6103 80.7113 69.407 79.8404 69.1325C78.705 68.8036 77.6476 68.2491 76.7315 67.5021C76.3683 67.1976 75.9576 66.9548 75.5156 66.7836L74.9629 66.6454C74.5992 66.5791 74.2429 66.4772 73.8991 66.3414C73.3288 66.0659 72.708 65.9107 72.0752 65.8855H71.3015C70.8317 65.8855 70.3619 65.8855 69.9198 65.8855C68.6917 65.747 67.4766 65.5114 66.2859 65.1808L65.7194 65.0426C65.3036 64.9439 64.8932 64.824 64.4897 64.6834C64.1442 64.559 63.7988 64.3932 63.4672 64.2412C63.1356 64.0892 62.9145 63.9787 62.6382 63.8682C61.9044 63.6039 61.1514 63.396 60.386 63.2464C59.8609 63.122 59.3359 63.0115 58.8246 62.8595L58.4655 62.749C57.4882 62.5539 56.5702 62.1328 55.785 61.5193L55.398 61.1877L55.5638 60.7317L55.7573 60.2481H56.5172L56.6968 60.4001C57.5786 60.9776 58.5718 61.3636 59.6122 61.5331L60.3169 61.6989L61.215 61.92C62.162 62.1142 63.0876 62.4012 63.9784 62.7766C66.3922 63.8661 69.0125 64.4222 71.6607 64.407H71.8265C72.4077 64.3874 72.9889 64.4479 73.5536 64.5867C73.8329 64.6721 74.1054 64.7784 74.3688 64.9045C74.6166 65.0227 74.8759 65.1153 75.1425 65.1808L75.4189 65.2499C75.8413 65.3096 76.2516 65.4355 76.6348 65.6229C77.0587 65.8463 77.4571 66.115 77.8231 66.4243L78.1823 66.6869C79.1238 67.3198 80.1876 67.7481 81.305 67.9442C81.9282 68.0861 82.5608 68.1831 83.1979 68.2344C83.537 68.2637 83.8738 68.3145 84.2065 68.3863C84.4979 68.449 84.7935 68.4906 85.0908 68.5107H85.3672H86.0304H86.7489H87.8681H88.8491C89.4503 68.501 90.0483 68.4223 90.6315 68.2758C91.0027 68.19 91.3836 68.1528 91.7645 68.1653H95.0391C95.5684 68.1374 96.0988 68.1374 96.6281 68.1653H97.1946C98.2801 68.159 99.348 68.4403 100.29 68.9805C100.676 69.243 101.091 69.4779 101.505 69.7128C102.048 70.0116 102.573 70.339 103.081 70.6938C103.378 70.8995 103.698 71.071 104.034 71.205L104.531 71.4399C105.007 71.6853 105.468 71.9575 105.913 72.2551L106.245 72.4624C106.736 72.7656 107.244 73.0424 107.765 73.2914C108.127 73.4631 108.474 73.6666 108.801 73.8994L109.367 74.2586C109.662 74.4253 109.966 74.573 110.279 74.7007L110.873 74.9633C111.399 75.2258 111.91 75.5298 112.407 75.8337L112.78 76.0686L113.775 76.6489C114.563 77.1049 115.378 77.5747 116.138 78.1135C116.525 78.3761 116.939 78.5833 117.367 78.8182C117.956 79.1 118.516 79.4377 119.039 79.8268C120.047 80.5847 121.114 81.2594 122.231 81.8442L122.798 82.1619C123.171 82.3554 123.53 82.5488 123.889 82.7699L124.179 82.9633C124.335 83.0313 124.476 83.13 124.594 83.2535C124.939 83.4884 125.271 83.7232 125.63 83.9305C125.808 84.0229 125.993 84.1014 126.183 84.1654C126.512 84.2883 126.827 84.4458 127.122 84.6352L127.758 85.0911C128.048 85.3122 128.352 85.5333 128.656 85.7267C129.31 86.0938 130.012 86.3682 130.742 86.5419C131.198 86.6663 131.668 86.8045 132.124 86.9703L132.732 87.2328C133.007 87.3727 133.294 87.4883 133.589 87.5782C133.934 87.6611 134.293 87.7302 134.639 87.7855L135.537 87.9651C136.006 88.0855 136.467 88.2331 136.919 88.4072L137.264 88.5316C137.766 88.6824 138.288 88.7524 138.811 88.7388H138.95H139.875H141.022C141.485 88.7293 141.948 88.7663 142.404 88.8494C143.428 89.1197 144.374 89.6261 145.167 90.3278L145.499 90.5903C145.748 90.7699 145.996 90.922 146.259 91.0878C146.479 91.2082 146.691 91.342 146.894 91.4884C147.227 91.7173 147.546 91.9665 147.848 92.2346L148.193 92.5247C149.05 93.1629 149.977 93.7007 150.957 94.1275L151.855 94.5558C152.348 94.7626 152.812 95.0319 153.236 95.3572C153.482 95.5521 153.709 95.7695 153.913 96.0066C154.118 96.227 154.34 96.4303 154.577 96.6146C154.961 96.9007 155.293 97.2513 155.558 97.6508C155.692 97.9056 155.92 98.0986 156.193 98.1897C156.4 98.2702 156.588 98.3925 156.746 98.549C156.853 98.6398 156.95 98.7417 157.036 98.8529C157.147 98.9635 157.216 99.0464 157.299 99.1155L157.616 99.295L158.045 99.5576C158.314 99.7401 158.573 99.9385 158.819 100.152C159.064 100.365 159.323 100.563 159.592 100.746C160.117 101.091 160.629 101.451 161.154 101.824C161.679 102.197 162.121 102.514 162.618 102.846C163.116 103.178 163.889 103.73 164.525 104.228C164.953 104.546 165.368 104.863 165.81 105.167C166.764 105.799 167.751 106.38 168.767 106.908L169.043 107.06C170.043 107.579 170.972 108.224 171.807 108.981C172.011 109.187 172.205 109.404 172.387 109.63C172.537 109.815 172.699 109.99 172.87 110.155C173.051 110.306 173.257 110.423 173.478 110.501C173.794 110.613 174.092 110.772 174.363 110.97C174.598 111.164 174.805 111.357 175.012 111.565C175.231 111.785 175.467 111.988 175.717 112.173C176.161 112.484 176.622 112.77 177.098 113.029L177.264 113.14C178.093 113.61 178.881 114.135 179.668 114.66L180.567 115.254L182.211 116.276C183.368 116.944 184.481 117.687 185.541 118.501L185.789 118.694L185.914 120.905L184.684 119.882C184.043 119.353 183.369 118.864 182.667 118.418L180.387 116.953C179.005 116.041 177.472 115.088 175.993 114.19C175.451 113.883 174.93 113.542 174.432 113.167C174.221 113.003 174.022 112.823 173.838 112.629C173.654 112.409 173.435 112.222 173.188 112.076L172.953 111.993C172.547 111.848 172.173 111.627 171.848 111.343C171.6 111.112 171.369 110.862 171.157 110.597C170.991 110.404 170.826 110.211 170.646 110.031C169.81 109.295 168.881 108.672 167.882 108.179C166.728 107.573 165.616 106.89 164.553 106.134L161.306 103.841L160.587 103.302L159.869 102.763L159.219 102.349C158.901 102.155 158.597 101.962 158.307 101.754C158.091 101.601 157.883 101.435 157.686 101.257C157.461 101.058 157.221 100.878 156.967 100.718L156.801 100.622C156.599 100.512 156.405 100.387 156.221 100.248C156.091 100.139 155.975 100.013 155.876 99.8754C155.833 99.8135 155.781 99.7577 155.723 99.7096C155.618 99.6219 155.502 99.5476 155.378 99.4885C155.033 99.3508 154.729 99.1273 154.494 98.8391C154.425 98.7286 154.342 98.618 154.287 98.5075L154.148 98.314C154.016 98.1558 153.863 98.0163 153.692 97.8995L153.416 97.6923C153.191 97.4945 152.978 97.2821 152.78 97.0567C152.624 96.8772 152.453 96.7108 152.269 96.5593C151.843 96.2443 151.379 95.9843 150.888 95.7855L150.266 95.4954C149.177 95.0378 148.151 94.4435 147.212 93.7268C146.701 93.3123 146.162 92.9392 145.623 92.5661C145.084 92.1931 144.739 91.9582 144.311 91.6266C143.458 90.814 142.349 90.3252 141.174 90.2449H141.022H139.944H138.77C138.405 90.249 138.04 90.2259 137.678 90.1758C137.24 90.0974 136.809 89.9771 136.393 89.8166C136.235 89.753 136.074 89.6977 135.91 89.6508C135.343 89.4804 134.766 89.3465 134.183 89.2501H134.003C133.465 89.1736 132.937 89.0393 132.428 88.8494L132.055 88.6974C131.794 88.5727 131.526 88.462 131.254 88.3658C131.482 88.6364 131.651 88.9517 131.751 89.2915C131.751 89.3882 131.751 89.4988 131.875 89.6231C132 89.7475 131.875 89.7337 132.373 89.8027C132.607 89.8399 132.838 89.8953 133.064 89.9685C133.754 90.2449 134.445 90.5903 135.053 90.8943C135.385 91.049 135.677 91.2755 135.91 91.5575C136.013 91.6604 136.136 91.7416 136.272 91.7962C136.407 91.8507 136.552 91.8776 136.698 91.8753H137.665C137.998 91.8663 138.331 91.9178 138.646 92.0273C139.047 92.1931 139.416 92.4268 139.737 92.7182C139.888 92.8511 140.05 92.9712 140.221 93.0774C140.886 93.4787 141.589 93.812 142.321 94.0722L142.97 94.2933C143.446 94.4429 143.908 94.6324 144.352 94.8598C144.739 95.0532 145.098 95.2881 145.471 95.523C145.774 95.7325 146.088 95.9262 146.411 96.1033C146.991 96.4073 147.53 96.7665 148.055 97.0981L148.525 97.4021C148.893 97.6378 149.276 97.8502 149.672 98.0377C149.962 98.1897 150.238 98.3279 150.515 98.4937C151.141 98.8601 151.679 99.3601 152.09 99.9583C152.505 100.492 152.967 100.987 153.471 101.437L153.623 101.589C153.941 101.906 154.231 102.252 154.535 102.584C154.839 102.915 154.977 103.095 155.212 103.33L155.862 103.993C156.193 104.338 156.525 104.67 156.843 105.015C157.316 105.574 157.849 106.079 158.432 106.521C159.123 107.019 159.648 107.419 160.131 107.834C160.739 108.363 161.401 108.826 162.107 109.216C162.555 109.439 163.016 109.632 163.489 109.796C163.793 109.907 164.097 110.031 164.387 110.169C164.838 110.355 165.3 110.517 165.769 110.653L166.528 110.901C167.043 111.115 167.512 111.424 167.91 111.813L168.2 112.062C168.56 112.352 168.919 112.615 169.292 112.891C170.191 113.508 171.021 114.221 171.765 115.019C172.083 115.378 172.373 115.765 172.663 116.152C172.953 116.539 172.995 116.58 173.174 116.787C173.354 116.995 173.561 117.257 173.769 117.478C173.976 117.699 174.307 118.086 174.556 118.404C175.025 119.05 175.454 119.724 175.841 120.421C176.254 121.138 176.716 121.826 177.223 122.48C178.052 123.516 178.978 124.511 179.862 125.478L180.511 126.183C181.03 126.741 181.519 127.327 181.976 127.938C182.149 128.192 182.354 128.424 182.584 128.629C182.687 128.705 182.805 128.762 182.929 128.794C183.148 128.875 183.357 128.982 183.551 129.112C183.728 129.241 183.891 129.389 184.035 129.554L184.256 129.762C184.583 130.025 184.935 130.256 185.306 130.452L185.914 130.784C186.395 131.04 186.857 131.331 187.295 131.655C187.394 131.719 187.487 131.793 187.572 131.876L187.765 132.028L187.848 132.401L187.171 132.608L187.848 132.47L188.221 134.349L186.591 132.967C186.471 132.854 186.342 132.752 186.204 132.663C185.858 132.428 185.472 132.221 185.099 132.014L184.297 131.572C183.968 131.377 183.65 131.165 183.344 130.936C183.203 130.819 183.07 130.695 182.943 130.563C182.819 130.423 182.674 130.302 182.515 130.204L182.294 130.121C182.089 130.05 181.893 129.952 181.713 129.831C181.386 129.579 181.098 129.281 180.857 128.946C180.152 128.035 179.364 127.164 178.605 126.335L177.541 125.147C176.485 124.029 175.558 122.796 174.777 121.471C174.432 120.85 174.059 120.214 173.658 119.634C173.369 119.232 173.055 118.849 172.718 118.487L172.166 117.838L171.503 116.995C171.282 116.718 171.06 116.428 170.826 116.152C170.392 115.636 169.901 115.173 169.361 114.77L167.399 113.236L166.984 112.905C166.645 112.575 166.24 112.321 165.796 112.159C165.142 111.976 164.5 111.75 163.876 111.482C163.572 111.344 163.254 111.219 162.95 111.109C162.446 110.919 161.952 110.702 161.471 110.459C160.787 110.098 160.135 109.677 159.523 109.202L159.164 108.898C158.694 108.511 158.224 108.138 157.782 107.793C156.951 107.232 156.186 106.578 155.502 105.844ZM118.749 50.4656H118.003L117.823 50.3413C117.606 50.2016 117.375 50.0857 117.133 49.9959L116.773 49.8439C116.416 49.6699 116.082 49.4517 115.778 49.1945L115.474 48.9734C115.197 48.7985 114.894 48.668 114.576 48.5865L114.203 48.4484C113.927 48.3655 113.665 48.2549 113.388 48.1444L112.656 47.868L112.2 47.7161C111.909 47.6293 111.623 47.5278 111.343 47.4121L110.749 47.1496C110.432 46.983 110.098 46.8488 109.754 46.7489L109.381 46.6521C108.96 46.6195 108.556 46.4739 108.21 46.2308C107.865 45.9876 107.592 45.6559 107.419 45.2704C107.35 45.1185 107.309 44.9665 107.253 44.8145C107.186 44.5884 107.093 44.3706 106.977 44.1651C106.781 43.8746 106.543 43.614 106.272 43.3913L106.024 43.1564C105.267 42.4273 104.557 41.6521 103.896 40.8352C103.703 40.5855 103.47 40.3705 103.205 40.1996C102.893 40.0404 102.557 39.9331 102.21 39.8818L101.879 39.7989C101.468 39.6936 101.07 39.5454 100.69 39.3568L99.9856 39.0666C99.5849 38.887 99.1842 38.7212 98.7836 38.5139C98.1952 38.1903 97.6276 37.8304 97.084 37.4362L96.186 36.8282C95.5945 36.4756 94.9858 36.1528 94.3621 35.861L93.3535 35.3775C92.9642 35.1894 92.5568 35.0412 92.1376 34.9353C91.8084 34.8366 91.4927 34.6974 91.1979 34.5208L90.8525 34.3412C90.0097 33.9405 89.0978 33.6227 88.2273 33.3049L87.7575 33.1391C87.2739 32.9733 86.8041 32.766 86.3758 32.5726C85.9475 32.3791 85.2981 32.1166 84.7454 31.937L83.6815 31.633L83.3775 31.5501C83.0736 31.5501 82.7834 31.3843 82.4932 31.2876L81.8162 31.0665L81.0424 30.8869L80.3239 30.7211C79.8481 30.5835 79.3856 30.4032 78.9422 30.1822L78.7764 30.1132C78.3156 29.8896 77.8205 29.7448 77.3118 29.6848C76.837 29.6402 76.3855 29.4577 76.013 29.1598C75.4185 28.8133 74.7516 28.6099 74.0649 28.5656C73.6918 28.5656 73.3188 28.4413 72.9595 28.3584L72.6003 28.2617C71.4534 27.9715 70.3067 27.6814 69.1737 27.3636L68.7453 27.2392C68.3031 27.1149 67.8748 27.0043 67.4603 26.8523C67.0809 26.7222 66.719 26.5458 66.3826 26.3273L65.9957 26.1062C65.8207 26.0369 65.6406 25.9815 65.4569 25.9404C65.2053 25.8942 64.9597 25.82 64.7245 25.7193C64.3042 25.4868 63.9519 25.1486 63.7021 24.7383L63.4534 24.3653L63.633 23.9784L63.8679 23.5777H64.6416L64.8489 23.854C65.1529 24.2547 65.2634 24.3653 65.5259 24.4205C66.0111 24.5079 66.4781 24.676 66.9077 24.918C67.6878 25.3445 68.5255 25.6563 69.3947 25.8437L69.6572 25.9128C70.2375 26.0786 70.8317 26.2168 71.412 26.3687L72.9457 26.7556C73.3602 26.8662 73.7747 26.9214 74.1892 26.9905C74.8121 27.0711 75.4269 27.2051 76.0269 27.3912C76.3143 27.5076 76.5878 27.6559 76.8421 27.8333L77.1599 28.0406C77.3501 28.1133 77.5506 28.1553 77.754 28.165C78.0305 28.1857 78.3039 28.2367 78.5692 28.317C78.9561 28.4551 79.3153 28.6209 79.6884 28.7867L79.868 28.8696C80.3791 29.0835 80.9118 29.241 81.4569 29.3394C82.0925 29.4776 82.7005 29.671 83.3223 29.8506C83.6954 29.975 84.0822 30.0855 84.4553 30.1822C85.1708 30.396 85.8722 30.6545 86.5554 30.956L87.5917 31.3567L88.6971 31.7712C89.3326 31.9923 89.9683 32.2134 90.5901 32.4621C91.2118 32.7108 91.5158 32.8489 91.9718 33.0838L92.1376 33.1805C92.2623 33.2532 92.3914 33.3178 92.5244 33.374H92.8146C92.9694 33.3978 93.1219 33.4348 93.2705 33.4845C93.5869 33.5992 93.8922 33.7426 94.1825 33.9128L94.4312 34.0372L95.951 34.7695C96.6561 35.1415 97.3348 35.5616 97.9821 36.0268L98.6178 36.4552C99.4277 36.95 100.278 37.3753 101.16 37.7264L101.464 37.8645C101.908 38.0552 102.371 38.1988 102.846 38.2928C103.367 38.3909 103.864 38.5879 104.31 38.8732C104.794 39.2386 105.218 39.6767 105.568 40.172C105.733 40.3792 105.899 40.6003 106.079 40.7937C106.259 40.9872 106.604 41.3049 106.866 41.5537C107.366 41.9731 107.829 42.4354 108.248 42.9354C108.534 43.3602 108.753 43.8261 108.898 44.3171C108.945 44.4823 109.015 44.6404 109.105 44.7869C109.271 44.8786 109.455 44.935 109.644 44.9527C110.406 45.1457 111.151 45.4046 111.868 45.7264C112.269 45.8784 112.656 46.0442 113.056 46.1824L114.079 46.5692L114.687 46.7903L115.115 46.9423C115.551 47.0628 115.969 47.2393 116.359 47.4674L116.842 47.8266C117.031 47.9889 117.234 48.1324 117.45 48.2549L117.81 48.4207C118.178 48.5637 118.527 48.7542 118.846 48.9872L119.26 49.3603L119.095 49.8301L118.749 50.4656ZM51.9714 106.991H52.3583C53.0005 106.969 53.6392 107.097 54.2236 107.364C54.9836 107.723 55.7435 108.069 56.5172 108.373C56.835 108.497 57.1528 108.58 57.4844 108.677C57.8732 108.78 58.2561 108.905 58.6313 109.05C59.3211 109.335 59.9945 109.658 60.6485 110.017L61.2979 110.349C61.808 110.585 62.2978 110.862 62.7625 111.178C62.8941 111.289 63.0436 111.378 63.2047 111.44H63.3981C63.5811 111.478 63.7612 111.529 63.937 111.592C64.2243 111.738 64.4894 111.924 64.7245 112.145C64.9923 112.351 65.2907 112.514 65.6088 112.629C65.9645 112.776 66.3291 112.9 66.7004 113.002C67.5629 113.231 68.3804 113.605 69.1183 114.107C69.5205 114.425 69.8949 114.776 70.2375 115.157L70.5554 115.502C70.9918 115.986 71.453 116.448 71.9371 116.884C72.4666 117.327 73.0518 117.699 73.6779 117.989C74.1754 118.224 74.6452 118.515 75.1288 118.791L75.6538 119.081C76.0201 119.292 76.3984 119.481 76.7868 119.648L77.6297 120.034L77.7955 120.131C78.0443 120.272 78.3086 120.383 78.5831 120.463C78.7787 120.508 78.9772 120.541 79.1772 120.559H79.5502C81.066 120.85 82.4886 121.504 83.6953 122.466C84.3585 122.95 84.8836 123.309 85.4363 123.641C86.0512 123.985 86.6379 124.378 87.191 124.815C87.6749 125.227 88.1361 125.666 88.5728 126.128C89.0921 126.702 89.6659 127.225 90.286 127.689C90.5449 127.867 90.8176 128.024 91.1013 128.159C91.3914 128.311 91.6816 128.477 91.9579 128.656C92.468 128.996 92.9324 129.4 93.3396 129.858C93.4794 130.011 93.6086 130.172 93.7265 130.342C93.9056 130.63 94.1405 130.879 94.4173 131.074C94.597 131.154 94.7882 131.206 94.9839 131.226C95.3401 131.274 95.6857 131.382 96.0063 131.544C96.1646 131.641 96.3169 131.747 96.4623 131.862L96.6695 132.014C96.8814 132.15 97.103 132.27 97.3327 132.373L97.5123 132.456C97.9258 132.672 98.3149 132.931 98.673 133.23C98.8941 133.396 99.1151 133.561 99.3362 133.699L99.7645 133.948C100.225 134.184 100.649 134.487 101.022 134.846C101.209 135.053 101.384 135.27 101.547 135.496C101.729 135.764 101.943 136.01 102.182 136.228C102.459 136.449 102.763 136.629 103.053 136.822C103.386 137.005 103.705 137.213 104.006 137.444C104.591 137.907 105.115 138.44 105.568 139.033C106.032 139.66 106.435 140.331 106.77 141.036C107.018 141.552 107.299 142.05 107.613 142.529C107.751 142.722 107.889 142.929 108.041 143.123C108.193 143.316 108.566 143.869 108.801 144.256C109.152 144.868 109.457 145.505 109.713 146.162V146.328C110.037 147.064 110.309 147.821 110.528 148.594C110.691 149.131 110.918 149.646 111.205 150.128L111.44 150.57C111.78 151.249 112.013 151.976 112.131 152.726V153.043C112.131 153.264 112.214 153.485 112.269 153.693C112.31 153.854 112.365 154.011 112.435 154.163C112.504 154.342 112.573 154.522 112.628 154.715C112.757 155.281 112.799 155.864 112.753 156.442V156.871V157.603H112.062H111.316V156.484C111.364 155.959 111.317 155.43 111.177 154.922C110.976 154.292 110.81 153.651 110.68 153.002V152.781C110.55 152.129 110.311 151.503 109.975 150.929C109.583 150.285 109.285 149.587 109.091 148.857C108.908 148.229 108.682 147.615 108.414 147.019L108.317 146.798C108.053 146.099 107.72 145.428 107.322 144.795C107.143 144.532 106.963 144.27 106.77 144.021C106.576 143.772 106.328 143.413 106.134 143.095C105.9 142.719 105.692 142.326 105.512 141.921C105.402 141.7 105.305 141.478 105.181 141.271C104.565 140.066 103.646 139.042 102.514 138.301L102.238 138.135C101.695 137.833 101.197 137.456 100.759 137.016C100.58 136.828 100.418 136.625 100.276 136.408C100.085 136.125 99.8523 135.873 99.5849 135.661L98.9217 135.261C98.5632 135.061 98.2171 134.839 97.8854 134.598L97.5815 134.349L97.1255 134.003L96.6419 133.769L96.2135 133.561L95.6332 133.188C95.4069 132.998 95.1434 132.857 94.8595 132.774C94.2632 132.726 93.6952 132.499 93.2291 132.124C92.9494 131.858 92.695 131.567 92.4692 131.254C92.331 131.074 92.1928 130.895 92.0408 130.729C91.6824 130.342 91.2678 130.011 90.8111 129.748L90.3828 129.513C89.9222 129.275 89.4831 128.997 89.0701 128.684C88.5196 128.258 87.998 127.797 87.5088 127.302L87.1634 126.957C86.847 126.601 86.5053 126.268 86.1409 125.962C85.6991 125.626 85.2377 125.317 84.7592 125.036L84.3861 124.815C83.9302 124.539 83.488 124.235 83.0044 123.917C82.2821 123.382 81.5093 122.92 80.697 122.535C80.0757 122.294 79.4253 122.136 78.7626 122.066C78.1238 121.948 77.5081 121.729 76.9388 121.416L76.0822 121.015C75.6124 120.794 75.1564 120.573 74.7005 120.311C74.2445 120.048 73.4569 119.606 72.8075 119.288C71.5723 118.627 70.4637 117.752 69.5328 116.705C69.3967 116.568 69.2676 116.425 69.146 116.276C68.8463 115.931 68.513 115.616 68.1511 115.337C67.6693 115.012 67.1372 114.769 66.5761 114.618L66.203 114.494C65.7608 114.342 65.3049 114.204 64.8213 114.024C64.4917 113.886 64.1769 113.714 63.8817 113.513C63.7746 113.442 63.673 113.364 63.5777 113.278C63.4561 113.157 63.3101 113.062 63.1494 113.002H62.9422C62.8329 112.989 62.7259 112.961 62.6243 112.919C62.2978 112.808 61.9937 112.639 61.7263 112.421C61.3708 112.184 60.9965 111.976 60.6071 111.799L59.9715 111.482C59.3229 111.117 58.654 110.789 57.968 110.501C57.7599 110.428 57.5477 110.368 57.3325 110.321L56.9594 110.224C56.5863 110.114 56.1994 109.962 55.7435 109.782C55.025 109.492 54.3618 109.188 53.6295 108.856C53.1595 108.635 52.6426 108.53 52.1234 108.552H51.9299L51.2115 108.442V107.06L51.9714 106.991ZM51.6813 101.312L51.9853 101.451C52.317 101.572 52.6254 101.75 52.8972 101.976C53.3529 102.329 53.8611 102.608 54.4033 102.805L55.1355 103.081C55.3019 103.132 55.4733 103.164 55.6467 103.178H56.006C56.3844 103.251 56.7368 103.423 57.0284 103.675C57.1277 103.764 57.2394 103.839 57.36 103.896C57.4645 103.921 57.5734 103.921 57.6779 103.896C57.8225 103.906 57.9659 103.929 58.1062 103.965C58.4089 104.033 58.6953 104.16 58.949 104.338C59.3684 104.593 59.8021 104.824 60.2478 105.029L60.6071 105.195L62.5829 106.204L63.9646 106.936C65.0009 107.461 66.0233 107.889 67.1149 108.318L67.4327 108.456C67.847 108.622 68.241 108.836 68.6071 109.091C69.0161 109.432 69.3542 109.85 69.602 110.321L69.6849 110.473C69.7667 110.643 69.8824 110.795 70.025 110.918C70.1676 111.042 70.334 111.135 70.5139 111.192C70.7832 111.247 71.0554 111.289 71.3291 111.316L72.0337 111.413L72.4345 111.482C72.8352 111.551 73.222 111.62 73.6227 111.717C74.2523 111.902 74.8558 112.167 75.4189 112.504L76.1513 112.905C77.1184 113.43 78.1271 113.983 79.0943 114.618C79.6884 115.005 80.1997 115.378 80.6556 115.737L80.9595 116.014C81.1944 116.221 81.5122 116.511 81.7056 116.511H81.8439H82.5209V117.147V117.81L81.8853 117.92H81.6227C81.2015 117.898 80.7968 117.749 80.4622 117.492C80.2135 117.312 79.9647 117.105 79.7298 116.912L79.1772 116.456C78.1843 115.714 77.1304 115.058 76.0269 114.494L75.184 114.038C74.4406 113.587 73.6354 113.247 72.7937 113.029C72.2549 112.919 71.7021 112.808 71.1632 112.753H70.9837C70.5109 112.728 70.0448 112.63 69.602 112.463C69.0868 112.23 68.6603 111.838 68.3861 111.343L68.234 111.081C68.0491 110.714 67.7848 110.393 67.4603 110.141C67.0986 109.934 66.7195 109.758 66.3273 109.616L66.1615 109.547C65.5535 109.312 64.9594 109.05 64.3653 108.774C63.4948 108.359 62.6243 107.917 61.7677 107.475L60.8005 106.977C60.234 106.701 59.6813 106.411 59.1148 106.148H58.949C58.7534 106.065 58.564 105.968 58.3825 105.858L58.12 105.692C57.9758 105.58 57.8117 105.496 57.6364 105.444C57.5491 105.436 57.4612 105.436 57.3739 105.444C57.108 105.436 56.8457 105.38 56.6001 105.278C56.3906 105.176 56.1993 105.041 56.0336 104.877L55.8264 104.725C55.6924 104.663 55.5454 104.635 55.398 104.642H55.0249C54.7153 104.581 54.4139 104.484 54.1269 104.352L53.7124 104.2C53.1836 104.015 52.6781 103.77 52.2063 103.468L51.847 103.178C51.7516 103.076 51.6394 102.992 51.5155 102.929L50.949 102.666L50.5897 102.404L50.4377 100.773L51.6813 101.312ZM111.233 108.912C111.026 108.627 110.841 108.327 110.68 108.014L110.542 107.779C110.376 107.489 110.196 107.198 110.003 106.922L109.851 106.701C109.33 105.95 108.933 105.119 108.677 104.242C108.566 103.868 108.469 103.495 108.373 103.122C108.108 101.867 107.642 100.663 106.991 99.5576C106.635 99.0761 106.217 98.6441 105.747 98.2726L105.181 97.7752L104.794 97.4021C104.269 96.9185 103.758 96.4349 103.205 96.0204C102.652 95.6059 101.823 94.9979 101.202 94.5005L100.967 94.3347C100.523 93.9905 100.103 93.6166 99.7093 93.2156C99.5297 93.0359 99.35 92.8563 99.1566 92.6905C98.8137 92.3889 98.4327 92.1334 98.0236 91.9306C97.6719 91.7417 97.3306 91.5341 97.0011 91.3088C96.4862 90.8969 95.9927 90.4588 95.5227 89.9962L94.8871 89.3882C94.1825 88.7665 93.5054 88.1171 92.8146 87.4539C92.7056 87.3492 92.6304 87.2144 92.5984 87.0667C92.5664 86.9191 92.5791 86.7652 92.635 86.6248L92.8837 86.1412H93.3535H93.6851L93.8923 86.3485C94.5831 87.0393 95.274 87.7302 96.0339 88.3658L96.6557 88.9461C97.0731 89.402 97.5361 89.8141 98.0374 90.1758C98.2585 90.3278 98.4933 90.4521 98.7144 90.5765C99.2507 90.8513 99.7517 91.19 100.207 91.5852L100.649 92.0135C101.077 92.4588 101.539 92.87 102.031 93.2432C102.749 93.7683 103.412 94.2933 104.158 94.8598C104.904 95.4263 105.195 95.7717 105.692 96.2415L106.203 96.7251L106.701 97.1534C107.209 97.5639 107.672 98.027 108.082 98.5351C108.474 99.1092 108.79 99.7315 109.022 100.387L109.16 100.732C109.438 101.431 109.655 102.152 109.81 102.887L109.92 103.33C110.116 104.163 110.453 104.957 110.915 105.679L111.164 106.038L111.633 106.742L111.91 107.254C112.02 107.447 112.117 107.641 112.241 107.82C112.705 108.432 113.271 108.96 113.913 109.382C114.398 109.758 114.859 110.164 115.295 110.597L115.861 111.109C116.138 111.357 116.428 111.578 116.718 111.813C117.136 112.123 117.533 112.46 117.906 112.822L118.639 113.54C118.998 113.927 119.371 114.3 119.772 114.66C120.172 115.019 120.338 115.198 120.628 115.489C120.938 115.819 121.266 116.133 121.609 116.428C122.202 116.955 122.71 117.57 123.115 118.252C123.309 118.542 123.516 118.819 123.723 119.095C124.069 119.578 124.428 120.062 124.732 120.587C124.912 120.877 125.077 121.181 125.243 121.485C125.499 121.996 125.795 122.486 126.127 122.95C126.321 123.226 126.542 123.503 126.763 123.765C127.109 124.17 127.432 124.594 127.73 125.036L128.241 125.851C128.573 126.376 128.891 126.902 129.25 127.399C129.609 127.896 129.72 128.007 129.969 128.297C130.309 128.685 130.623 129.096 130.908 129.527C131.102 129.817 131.281 130.135 131.461 130.439C131.724 130.919 132.019 131.38 132.345 131.82C132.841 132.405 133.366 132.963 133.92 133.492L134.031 133.589C134.611 134.169 135.15 134.777 135.661 135.358C136.248 136.061 136.876 136.73 137.54 137.361C137.913 137.693 138.314 138.01 138.715 138.328C139.645 138.993 140.469 139.794 141.16 140.705C141.413 141.065 141.685 141.41 141.976 141.741C142.252 142.059 142.514 142.377 142.763 142.708C143.227 143.394 143.629 144.12 143.965 144.877L144.048 145.071C144.32 145.535 144.564 146.015 144.78 146.508C144.919 146.909 145.057 147.309 145.236 147.71C145.44 148.127 145.68 148.524 145.955 148.898L146.508 149.755L146.618 149.962C147.039 150.634 147.391 151.347 147.668 152.09C147.907 152.957 147.992 153.86 147.917 154.757C147.839 155.506 147.938 156.263 148.207 156.967C148.351 157.256 148.518 157.533 148.705 157.796C148.842 158.025 148.958 158.265 149.05 158.515C149.05 158.653 149.174 158.805 149.243 158.929C149.534 159.393 149.862 159.832 150.224 160.242L150.832 160.988C151.399 161.748 151.979 162.494 152.504 163.268L152.753 163.613C153.154 164.131 153.489 164.697 153.748 165.299C153.95 165.741 154.211 166.155 154.521 166.529C154.745 166.812 154.952 167.107 155.143 167.413C155.511 168.07 155.977 168.666 156.525 169.182L156.898 169.582L156.732 170.024L156.483 170.522H155.696L155.502 170.356C154.871 169.757 154.331 169.068 153.9 168.311C153.731 168.038 153.547 167.775 153.347 167.524C153.053 167.146 152.785 166.749 152.546 166.335C152.456 166.156 152.377 165.972 152.311 165.783C152.264 165.646 152.208 165.512 152.145 165.382C152.01 165.166 151.862 164.958 151.703 164.76L151.399 164.359C150.888 163.627 150.363 162.895 149.824 162.19L149.174 161.389C148.801 160.919 148.414 160.463 148.083 160.007C147.938 159.776 147.818 159.531 147.723 159.275L147.585 158.943C147.494 158.776 147.392 158.614 147.281 158.46C147.157 158.28 147.046 158.1 146.936 157.907C146.479 156.914 146.293 155.817 146.397 154.729C146.433 154.166 146.405 153.6 146.314 153.043C146.141 152.368 145.861 151.724 145.485 151.137L145.292 150.777C145.112 150.473 144.919 150.169 144.711 149.879C144.431 149.487 144.177 149.076 143.951 148.649C143.737 148.2 143.548 147.738 143.385 147.268C143.264 146.862 143.116 146.465 142.943 146.08L142.818 145.831C142.513 145.138 142.158 144.468 141.755 143.827C141.525 143.504 141.276 143.194 141.008 142.902C140.718 142.57 140.442 142.238 140.193 141.893C139.763 141.274 139.241 140.724 138.646 140.263C137.205 139.161 135.889 137.906 134.722 136.518C134.205 135.887 133.646 135.292 133.05 134.736C132.412 134.134 131.808 133.497 131.24 132.829C130.876 132.335 130.544 131.818 130.245 131.282L129.872 130.646C129.584 130.213 129.271 129.797 128.932 129.402C128.697 129.14 128.476 128.864 128.269 128.587C127.855 128.034 127.495 127.44 127.136 126.86L126.708 126.183C126.386 125.702 126.035 125.24 125.658 124.801L125.16 124.166C124.759 123.605 124.394 123.019 124.069 122.411C123.944 122.176 123.82 121.941 123.682 121.706C123.336 121.126 122.949 120.587 122.549 120.021L122.176 119.496C122.051 119.33 121.941 119.15 121.83 118.971C121.72 118.791 121.595 118.597 121.457 118.418C121.245 118.148 120.999 117.907 120.725 117.699C120.346 117.38 119.986 117.039 119.647 116.677C119.399 116.414 119.15 116.166 118.887 115.931C118.625 115.696 118.1 115.157 117.713 114.756L116.884 113.941C116.568 113.651 116.236 113.379 115.889 113.126C115.585 112.877 115.281 112.642 114.991 112.38L114.521 111.965C113.989 111.475 113.431 111.014 112.849 110.584C112.223 110.118 111.677 109.553 111.233 108.912Z" fill="#EEDAAE"/>
</svg>
