<svg width="957" height="604" viewBox="0 0 957 604" fill="none" xmlns="http://www.w3.org/2000/svg">
<path d="M87.5684 127.605L44.2671 102.605L0.96582 127.605M87.5684 127.605V177.605M87.5684 127.605L44.2671 152.605M87.5684 127.605L130.87 102.605L174.171 127.605M87.5684 127.605L130.87 152.605M87.5684 177.605L44.2671 202.605M87.5684 177.605L130.87 202.605M44.2671 202.605L0.96582 177.605V127.605M44.2671 202.605V152.605M44.2671 202.605L87.5684 227.605M44.2671 202.605L0.96582 227.605M0.96582 127.605L44.2671 152.605M174.171 127.605V177.605M174.171 127.605L130.87 152.605M174.171 127.605L217.472 102.605L260.773 127.605M174.171 127.605L217.472 152.605M174.171 177.605L130.87 202.605M174.171 177.605L217.472 202.605M130.87 202.605V152.605M130.87 202.605L174.171 227.605M130.87 202.605L87.5684 227.605M260.773 127.605V177.605M260.773 127.605L217.472 152.605M260.773 127.605L304.075 102.605L347.376 127.605M260.773 127.605L304.075 152.605M260.773 177.605L217.472 202.605M260.773 177.605L304.075 202.605M217.472 202.605V152.605M217.472 202.605L174.171 227.605M217.472 202.605L227.101 208.164M347.376 127.605V177.605M347.376 127.605L304.075 152.605M347.376 127.605L390.677 102.605L433.979 127.605M347.376 127.605L390.677 152.605M347.376 177.605L304.075 202.605M347.376 177.605L390.677 202.605M304.075 202.605V152.605M304.075 202.605L347.376 227.605M304.075 202.605L296.775 206.82M433.979 127.605V177.605M433.979 127.605L390.677 152.605M433.979 127.605L477.28 102.605L520.581 127.605M433.979 127.605L477.28 152.605M433.979 177.605L390.677 202.605M433.979 177.605L477.28 202.605M390.677 202.605V152.605M390.677 202.605L433.979 227.605M390.677 202.605L347.376 227.605M520.581 127.605V177.605M520.581 127.605L477.28 152.605M520.581 127.605L563.882 102.605L607.184 127.605M520.581 127.605L563.882 152.605M520.581 177.605L477.28 202.605M520.581 177.605L563.882 202.605M477.28 202.605V152.605M477.28 202.605L520.581 227.605M477.28 202.605L433.979 227.605M607.184 127.605V177.605M607.184 127.605L563.882 152.605M607.184 127.605L650.485 102.605L693.786 127.605M607.184 127.605L650.485 152.605M607.184 177.605L563.882 202.605M607.184 177.605L650.485 202.605M563.882 202.605V152.605M563.882 202.605L607.184 227.605M563.882 202.605L520.581 227.605M693.786 127.605V177.605M693.786 127.605L650.485 152.605M693.786 127.605L737.087 102.605L780.389 127.605M693.786 127.605L737.087 152.605M693.786 177.605L650.485 202.605M693.786 177.605L737.087 202.605M650.485 202.605V152.605M650.485 202.605L693.786 227.605M650.485 202.605L607.184 227.605M780.389 127.605V177.605L737.087 202.605M780.389 127.605L737.087 152.605M737.087 202.605V152.605M737.087 202.605L780.389 227.605M737.087 202.605L693.786 227.605M87.5684 227.605V277.605M87.5684 227.605L44.2671 252.605M87.5684 227.605L130.87 252.605M87.5684 277.605L44.2671 302.605M87.5684 277.605L130.87 302.605M44.2671 302.605L0.96582 277.605V227.605M44.2671 302.605V252.605M44.2671 302.605L87.5684 327.605M44.2671 302.605L0.96582 327.605M0.96582 227.605L44.2671 252.605M174.171 227.605L130.87 252.605M174.171 227.605L182.653 232.502M130.87 302.605V252.605M130.87 302.605L87.5684 327.605M130.87 302.605L139.685 307.695M130.87 302.605L142.236 296.043M347.376 227.605L390.677 252.605M347.376 227.605L343.022 230.119M433.979 227.605V277.605M433.979 227.605L390.677 252.605M433.979 227.605L477.28 252.605M433.979 277.605L390.677 302.605M433.979 277.605L477.28 302.605M390.677 302.605V252.605M390.677 302.605L433.979 327.605M390.677 302.605L388.212 304.029M520.581 227.605V277.605M520.581 227.605L477.28 252.605M520.581 227.605L563.882 252.605M520.581 277.605L477.28 302.605M520.581 277.605L563.882 302.605M477.28 302.605V252.605M477.28 302.605L520.581 327.605M477.28 302.605L433.979 327.605M607.184 227.605V277.605M607.184 227.605L563.882 252.605M607.184 227.605L650.485 252.605M607.184 277.605L563.882 302.605M607.184 277.605L650.485 302.605M563.882 302.605V252.605M563.882 302.605L607.184 327.605M563.882 302.605L520.581 327.605M693.786 227.605V277.605M693.786 227.605L650.485 252.605M693.786 227.605L737.087 252.605M693.786 277.605L650.485 302.605M693.786 277.605L737.087 302.605M650.485 302.605V252.605M650.485 302.605L693.786 327.605M650.485 302.605L607.184 327.605M780.389 227.605V277.605L737.087 302.605M780.389 227.605L737.087 252.605M737.087 302.605V252.605M737.087 302.605L780.389 327.605M737.087 302.605L693.786 327.605M87.5684 327.605V377.605M87.5684 327.605L44.2671 352.605M87.5684 327.605L130.87 352.605M87.5684 377.605L44.2671 402.605M87.5684 377.605L130.87 402.605M44.2671 402.605L0.96582 377.605V327.605M44.2671 402.605V352.605M44.2671 402.605L87.5684 427.605M44.2671 402.605L0.96582 427.605M0.96582 327.605L44.2671 352.605M130.87 402.605V352.605M130.87 402.605L174.171 427.605M130.87 402.605L87.5684 427.605M130.87 402.605L152.52 390.105M130.87 352.605L139.28 347.75M433.979 327.605V377.605M433.979 327.605L390.677 352.605M433.979 327.605L477.28 352.605M433.979 377.605L390.677 402.605M433.979 377.605L477.28 402.605M390.677 402.605V352.605M390.677 402.605L433.979 427.605M390.677 402.605L347.376 427.605M390.677 402.605L373.484 392.679M390.677 352.605L388.687 351.456M520.581 327.605V377.605M520.581 327.605L477.28 352.605M520.581 327.605L563.882 352.605M520.581 377.605L477.28 402.605M520.581 377.605L563.882 402.605M477.28 402.605V352.605M477.28 402.605L520.581 427.605M477.28 402.605L433.979 427.605M607.184 327.605V377.605M607.184 327.605L563.882 352.605M607.184 327.605L650.485 352.605M607.184 377.605L563.882 402.605M607.184 377.605L650.485 402.605M563.882 402.605V352.605M563.882 402.605L607.184 427.605M563.882 402.605L520.581 427.605M693.786 327.605V377.605M693.786 327.605L650.485 352.605M693.786 327.605L737.087 352.605M693.786 377.605L650.485 402.605M693.786 377.605L737.087 402.605M650.485 402.605V352.605M650.485 402.605L693.786 427.605M650.485 402.605L607.184 427.605M780.389 327.605V377.605L737.087 402.605M780.389 327.605L737.087 352.605M737.087 402.605V352.605M737.087 402.605L780.389 427.605M737.087 402.605L693.786 427.605M87.5684 427.605V477.605M87.5684 427.605L44.2671 452.605M87.5684 427.605L130.87 452.605M87.5684 477.605L44.2671 502.605M87.5684 477.605L130.87 502.605M44.2671 502.605L0.96582 477.605V427.605M44.2671 502.605V452.605M44.2671 502.605L87.5684 527.605M44.2671 502.605L0.96582 527.605M0.96582 427.605L44.2671 452.605M174.171 427.605V477.605M174.171 427.605L130.87 452.605M174.171 427.605L217.472 452.605M174.171 427.605L180.725 423.822M174.171 477.605L130.87 502.605M174.171 477.605L217.472 502.605M130.87 502.605V452.605M130.87 502.605L174.171 527.605M130.87 502.605L87.5684 527.605M260.773 477.605L217.472 502.605M260.773 477.605L304.075 502.605M260.773 477.605V455.337C261.941 455.369 263.112 455.385 264.287 455.385M217.472 502.605V452.605M217.472 502.605L260.773 527.605M217.472 502.605L174.171 527.605M217.472 452.605L224.009 448.831M347.376 427.605V477.605M347.376 427.605L390.677 452.605M347.376 427.605L345.02 426.245M347.376 427.605L325.725 440.105L304.075 452.605M347.376 477.605L304.075 502.605M347.376 477.605L390.677 502.605M304.075 502.605V452.605M304.075 502.605L347.376 527.605M304.075 502.605L260.773 527.605M304.075 452.605L300.019 450.264M433.979 427.605V477.605M433.979 427.605L390.677 452.605M433.979 427.605L477.28 452.605M433.979 477.605L390.677 502.605M433.979 477.605L477.28 502.605M390.677 502.605V452.605M390.677 502.605L433.979 527.605M390.677 502.605L347.376 527.605M520.581 427.605V477.605M520.581 427.605L477.28 452.605M520.581 427.605L563.882 452.605M520.581 477.605L477.28 502.605M520.581 477.605L563.882 502.605M477.28 502.605V452.605M477.28 502.605L520.581 527.605M477.28 502.605L433.979 527.605M607.184 427.605V477.605M607.184 427.605L563.882 452.605M607.184 427.605L650.485 452.605M607.184 477.605L563.882 502.605M607.184 477.605L650.485 502.605M563.882 502.605V452.605M563.882 502.605L607.184 527.605M563.882 502.605L520.581 527.605M693.786 427.605V477.605M693.786 427.605L650.485 452.605M693.786 427.605L737.087 452.605M693.786 477.605L650.485 502.605M693.786 477.605L737.087 502.605M650.485 502.605V452.605M650.485 502.605L693.786 527.605M650.485 502.605L607.184 527.605M780.389 427.605V477.605L737.087 502.605M780.389 427.605L737.087 452.605M737.087 502.605V452.605M737.087 502.605L780.389 527.605M737.087 502.605L693.786 527.605M87.5684 527.605V577.605M87.5684 527.605L44.2671 552.606M87.5684 527.605L130.87 552.606M87.5684 577.605L44.2671 602.605M87.5684 577.605L130.87 602.605M44.2671 602.605L0.96582 577.605V527.605M44.2671 602.605V552.606M0.96582 527.605L44.2671 552.606M174.171 527.605V577.605M174.171 527.605L130.87 552.606M174.171 527.605L217.472 552.606M174.171 577.605L130.87 602.605M174.171 577.605L217.472 602.605M130.87 602.605V552.606M260.773 527.605V577.605M260.773 527.605L217.472 552.606M260.773 527.605L304.075 552.606M260.773 577.605L217.472 602.605M260.773 577.605L304.075 602.605M217.472 602.605V552.606M347.376 527.605V577.605M347.376 527.605L304.075 552.606M347.376 527.605L390.677 552.606M347.376 577.605L304.075 602.605M347.376 577.605L390.677 602.605M304.075 602.605V552.606M433.979 527.605V577.605M433.979 527.605L390.677 552.606M433.979 527.605L477.28 552.606M433.979 577.605L390.677 602.605M433.979 577.605L477.28 602.605M390.677 602.605V552.606M520.581 527.605V577.605M520.581 527.605L477.28 552.606M520.581 527.605L563.882 552.606M520.581 577.605L477.28 602.605M520.581 577.605L563.882 602.605M477.28 602.605V552.606M607.184 527.605V577.605M607.184 527.605L563.882 552.606M607.184 527.605L650.485 552.606M607.184 577.605L563.882 602.605M607.184 577.605L650.485 602.605M563.882 602.605V552.606M693.786 527.605V577.605M693.786 527.605L650.485 552.606M693.786 527.605L737.087 552.606M693.786 577.605L650.485 602.605M693.786 577.605L737.087 602.605M650.485 602.605V552.606M780.389 527.605V577.605L737.087 602.605M780.389 527.605L737.087 552.606M737.087 602.605V552.606M87.5684 76.8231L44.2671 51.823L0.96582 76.8231M87.5684 76.8231V126.823M87.5684 76.8231L44.2671 101.823M87.5684 76.8231L130.87 51.823L174.171 76.8231M87.5684 76.8231L130.87 101.823M87.5684 126.823L44.2671 151.823M87.5684 126.823L130.87 151.823M44.2671 151.823L0.96582 126.823V76.8231M44.2671 151.823V101.823M0.96582 76.8231L44.2671 101.823M174.171 76.8231V126.823M174.171 76.8231L130.87 101.823M174.171 76.8231L217.472 51.823L260.773 76.8231M174.171 76.8231L217.472 101.823M174.171 126.823L130.87 151.823M174.171 126.823L217.472 151.823M130.87 151.823V101.823M260.773 76.8231V126.823M260.773 76.8231L217.472 101.823M260.773 76.8231L304.075 51.823L347.376 76.8231M260.773 76.8231L304.075 101.823M260.773 126.823L217.472 151.823M260.773 126.823L304.075 151.823M217.472 151.823V101.823M347.376 76.8231V126.823M347.376 76.8231L304.075 101.823M347.376 76.8231L390.677 51.823L433.979 76.8231M347.376 76.8231L390.677 101.823M347.376 126.823L304.075 151.823M347.376 126.823L390.677 151.823M304.075 151.823V101.823M433.979 76.8231V126.823M433.979 76.8231L390.677 101.823M433.979 76.8231L477.28 51.823L520.581 76.8231M433.979 76.8231L477.28 101.823M433.979 126.823L390.677 151.823M433.979 126.823L477.28 151.823M390.677 151.823V101.823M520.581 76.8231V126.823M520.581 76.8231L477.28 101.823M520.581 76.8231L563.882 51.823L607.184 76.8231M520.581 76.8231L563.882 101.823M520.581 126.823L477.28 151.823M520.581 126.823L563.882 151.823M477.28 151.823V101.823M607.184 76.8231V126.823M607.184 76.8231L563.882 101.823M607.184 76.8231L650.485 51.823L693.786 76.8231M607.184 76.8231L650.485 101.823M607.184 126.823L563.882 151.823M607.184 126.823L650.485 151.823M563.882 151.823V101.823M693.786 76.8231V126.823M693.786 76.8231L650.485 101.823M693.786 76.8231L737.087 51.823L780.389 76.8231M693.786 76.8231L737.087 101.823M693.786 126.823L650.485 151.823M693.786 126.823L737.087 151.823M650.485 151.823V101.823M780.389 76.8231V126.823L737.087 151.823M780.389 76.8231L737.087 101.823M737.087 151.823V101.823M87.5684 26.0403L44.2671 1.04034L0.96582 26.0403M87.5684 26.0403V76.0403M87.5684 26.0403L44.2671 51.0403M87.5684 26.0403L130.87 1.04034L174.171 26.0403M87.5684 26.0403L130.87 51.0403M87.5684 76.0403L44.2671 101.04M87.5684 76.0403L130.87 101.04M44.2671 101.04L0.96582 76.0403V26.0403M44.2671 101.04V51.0403M0.96582 26.0403L44.2671 51.0403M174.171 26.0403V76.0403M174.171 26.0403L130.87 51.0403M174.171 26.0403L217.472 1.04034L260.773 26.0403M174.171 26.0403L217.472 51.0403M174.171 76.0403L130.87 101.04M174.171 76.0403L217.472 101.04M130.87 101.04V51.0403M260.773 26.0403V76.0403M260.773 26.0403L217.472 51.0403M260.773 26.0403L304.075 1.04034L347.376 26.0403M260.773 26.0403L304.075 51.0403M260.773 76.0403L217.472 101.04M260.773 76.0403L304.075 101.04M217.472 101.04V51.0403M347.376 26.0403V76.0403M347.376 26.0403L304.075 51.0403M347.376 26.0403L390.677 1.04034L433.979 26.0403M347.376 26.0403L390.677 51.0403M347.376 76.0403L304.075 101.04M347.376 76.0403L390.677 101.04M304.075 101.04V51.0403M433.979 26.0403V76.0403M433.979 26.0403L390.677 51.0403M433.979 26.0403L477.28 1.04034L520.581 26.0403M433.979 26.0403L477.28 51.0403M433.979 76.0403L390.677 101.04M433.979 76.0403L477.28 101.04M390.677 101.04V51.0403M520.581 26.0403V76.0403M520.581 26.0403L477.28 51.0403M520.581 26.0403L563.882 1.04034L607.184 26.0403M520.581 26.0403L563.882 51.0403M520.581 76.0403L477.28 101.04M520.581 76.0403L563.882 101.04M477.28 101.04V51.0403M607.184 26.0403V76.0403M607.184 26.0403L563.882 51.0403M607.184 26.0403L650.485 1.04034L693.786 26.0403M607.184 26.0403L650.485 51.0403M607.184 76.0403L563.882 101.04M607.184 76.0403L650.485 101.04M563.882 101.04V51.0403M693.786 26.0403V76.0403M693.786 26.0403L650.485 51.0403M693.786 26.0403L737.087 1.04034L780.389 26.0403M693.786 26.0403L737.087 51.0403M693.786 76.0403L650.485 101.04M693.786 76.0403L737.087 101.04M650.485 101.04V51.0403M780.389 26.0403V76.0403L737.087 101.04M780.389 26.0403L737.087 51.0403M737.087 101.04V51.0403M782.59 127.605V177.605L825.891 202.605M782.59 127.605L825.891 102.605L869.192 127.605M782.59 127.605L825.891 152.605M869.192 127.605V177.605M869.192 127.605L825.891 152.605M869.192 127.605L912.493 102.605L955.795 127.605M869.192 127.605L912.493 152.605M869.192 177.605L825.891 202.605M869.192 177.605L912.493 202.605M825.891 202.605V152.605M825.891 202.605L869.192 227.605M825.891 202.605L782.59 227.605M955.795 127.605V177.605L912.493 202.605M955.795 127.605L912.493 152.605M912.493 202.605V152.605M912.493 202.605L955.795 227.605M912.493 202.605L869.192 227.605M782.59 227.605V277.605L825.891 302.605M782.59 227.605L825.891 252.605M869.192 227.605V277.605M869.192 227.605L825.891 252.605M869.192 227.605L912.493 252.605M869.192 277.605L825.891 302.605M869.192 277.605L912.493 302.605M825.891 302.605V252.605M825.891 302.605L869.192 327.605M825.891 302.605L782.59 327.605M955.795 227.605V277.605L912.493 302.605M955.795 227.605L912.493 252.605M912.493 302.605V252.605M912.493 302.605L955.795 327.605M912.493 302.605L869.192 327.605M782.59 327.605V377.605L825.891 402.605M782.59 327.605L825.891 352.605M869.192 327.605V377.605M869.192 327.605L825.891 352.605M869.192 327.605L912.493 352.605M869.192 377.605L825.891 402.605M869.192 377.605L912.493 402.605M825.891 402.605V352.605M825.891 402.605L869.192 427.605M825.891 402.605L782.59 427.605M955.795 327.605V377.605L912.493 402.605M955.795 327.605L912.493 352.605M912.493 402.605V352.605M912.493 402.605L955.795 427.605M912.493 402.605L869.192 427.605M782.59 427.605V477.605L825.891 502.605M782.59 427.605L825.891 452.605M869.192 427.605V477.605M869.192 427.605L825.891 452.605M869.192 427.605L912.493 452.605M869.192 477.605L825.891 502.605M869.192 477.605L912.493 502.605M825.891 502.605V452.605M825.891 502.605L869.192 527.605M825.891 502.605L782.59 527.605M955.795 427.605V477.605L912.493 502.605M955.795 427.605L912.493 452.605M912.493 502.605V452.605M912.493 502.605L955.795 527.605M912.493 502.605L869.192 527.605M782.59 527.605V577.605L825.891 602.605M782.59 527.605L825.891 552.606M869.192 527.605V577.605M869.192 527.605L825.891 552.606M869.192 527.605L912.493 552.606M869.192 577.605L825.891 602.605M869.192 577.605L912.493 602.605M825.891 602.605V552.606M955.795 527.605V577.605L912.493 602.605M955.795 527.605L912.493 552.606M912.493 602.605V552.606M782.59 76.8231V126.823L825.891 151.823M782.59 76.8231L825.891 51.823L869.192 76.8231M782.59 76.8231L825.891 101.823M869.192 76.8231V126.823M869.192 76.8231L825.891 101.823M869.192 76.8231L912.493 51.823L955.795 76.8231M869.192 76.8231L912.493 101.823M869.192 126.823L825.891 151.823M869.192 126.823L912.493 151.823M825.891 151.823V101.823M955.795 76.8231V126.823L912.493 151.823M955.795 76.8231L912.493 101.823M912.493 151.823V101.823M782.59 26.0403V76.0403L825.891 101.04M782.59 26.0403L825.891 1.04034L869.192 26.0403M782.59 26.0403L825.891 51.0403M869.192 26.0403V76.0403M869.192 26.0403L825.891 51.0403M869.192 26.0403L912.493 1.04034L955.795 26.0403M869.192 26.0403L912.493 51.0403M869.192 76.0403L825.891 101.04M869.192 76.0403L912.493 101.04M825.891 101.04V51.0403M955.795 26.0403V76.0403L912.493 101.04M955.795 26.0403L912.493 51.0403M912.493 101.04V51.0403" stroke="#6C6F7D"/>
</svg>
